<?xml version="1.0" encoding="utf-8" standalone="no"?>
<!DOCTYPE svg PUBLIC "-//W3C//DTD SVG 1.1//EN"
  "http://www.w3.org/Graphics/SVG/1.1/DTD/svg11.dtd">
<svg xmlns:xlink="http://www.w3.org/1999/xlink" width="893.184976pt" height="355.956591pt" viewBox="0 0 893.184976 355.956591" xmlns="http://www.w3.org/2000/svg" version="1.1">
 <metadata>
  <rdf:RDF xmlns:dc="http://purl.org/dc/elements/1.1/" xmlns:cc="http://creativecommons.org/ns#" xmlns:rdf="http://www.w3.org/1999/02/22-rdf-syntax-ns#">
   <cc:Work>
    <dc:type rdf:resource="http://purl.org/dc/dcmitype/StillImage"/>
    <dc:date>2026-06-21T21:10:26.651183</dc:date>
    <dc:format>image/svg+xml</dc:format>
    <dc:creator>
     <cc:Agent>
      <dc:title>Matplotlib v3.11.0, https://matplotlib.org/</dc:title>
     </cc:Agent>
    </dc:creator>
   </cc:Work>
  </rdf:RDF>
 </metadata>
 <defs>
  <style type="text/css">*{stroke-linejoin: round; stroke-linecap: butt}</style>
 </defs>
 <g id="figure_1">
  <g id="patch_1">
   <path d="M 0 355.956591 
L 893.184976 355.956591 
L 893.184976 0 
L 0 0 
z
" style="fill: #ffffff"/>
  </g>
  <g id="axes_1">
   <g id="patch_2">
    <path d="M 40.925781 317.75581 
L 439.801532 317.75581 
L 439.801532 79.327294 
L 40.925781 79.327294 
z
" style="fill: #ffffff"/>
   </g>
   <g id="patch_3">
    <path d="M 59.056497 317.75581 
L 79.581836 317.75581 
L 79.581836 267.294749 
L 59.056497 267.294749 
z
" clip-path="url(#pef8d17f8f9)" style="fill: #34495e; opacity: 0.85"/>
   </g>
   <g id="patch_4">
    <path d="M 81.862429 317.75581 
L 102.387768 317.75581 
L 102.387768 204.218422 
L 81.862429 204.218422 
z
" clip-path="url(#pef8d17f8f9)" style="fill: #34495e; opacity: 0.85"/>
   </g>
   <g id="patch_5">
    <path d="M 104.668361 317.75581 
L 125.1937 317.75581 
L 125.1937 273.602381 
L 104.668361 273.602381 
z
" clip-path="url(#pef8d17f8f9)" style="fill: #34495e; opacity: 0.85"/>
   </g>
   <g id="patch_6">
    <path d="M 127.474293 317.75581 
L 147.999632 317.75581 
L 147.999632 191.603156 
L 127.474293 191.603156 
z
" clip-path="url(#pef8d17f8f9)" style="fill: #34495e; opacity: 0.85"/>
   </g>
   <g id="patch_7">
    <path d="M 150.280225 317.75581 
L 170.805564 317.75581 
L 170.805564 172.680258 
L 150.280225 172.680258 
z
" clip-path="url(#pef8d17f8f9)" style="fill: #34495e; opacity: 0.85"/>
   </g>
   <g id="patch_8">
    <path d="M 173.086157 317.75581 
L 193.611496 317.75581 
L 193.611496 147.449728 
L 173.086157 147.449728 
z
" clip-path="url(#pef8d17f8f9)" style="fill: #34495e; opacity: 0.85"/>
   </g>
   <g id="patch_9">
    <path d="M 195.892089 317.75581 
L 216.417428 317.75581 
L 216.417428 242.064218 
L 195.892089 242.064218 
z
" clip-path="url(#pef8d17f8f9)" style="fill: #34495e; opacity: 0.85"/>
   </g>
   <g id="patch_10">
    <path d="M 218.698021 317.75581 
L 239.22336 317.75581 
L 239.22336 267.294749 
L 218.698021 267.294749 
z
" clip-path="url(#pef8d17f8f9)" style="fill: #34495e; opacity: 0.85"/>
   </g>
   <g id="patch_11">
    <path d="M 241.503953 317.75581 
L 262.029292 317.75581 
L 262.029292 216.833687 
L 241.503953 216.833687 
z
" clip-path="url(#pef8d17f8f9)" style="fill: #34495e; opacity: 0.85"/>
   </g>
   <g id="patch_12">
    <path d="M 264.309885 317.75581 
L 284.835224 317.75581 
L 284.835224 267.294749 
L 264.309885 267.294749 
z
" clip-path="url(#pef8d17f8f9)" style="fill: #34495e; opacity: 0.85"/>
   </g>
   <g id="patch_13">
    <path d="M 287.115818 317.75581 
L 307.641156 317.75581 
L 307.641156 317.75581 
L 287.115818 317.75581 
z
" clip-path="url(#pef8d17f8f9)" style="fill: #34495e; opacity: 0.85"/>
   </g>
   <g id="patch_14">
    <path d="M 309.92175 317.75581 
L 330.447088 317.75581 
L 330.447088 317.75581 
L 309.92175 317.75581 
z
" clip-path="url(#pef8d17f8f9)" style="fill: #34495e; opacity: 0.85"/>
   </g>
   <g id="patch_15">
    <path d="M 332.727682 317.75581 
L 353.25302 317.75581 
L 353.25302 317.75581 
L 332.727682 317.75581 
z
" clip-path="url(#pef8d17f8f9)" style="fill: #34495e; opacity: 0.85"/>
   </g>
   <g id="patch_16">
    <path d="M 355.533614 317.75581 
L 376.058952 317.75581 
L 376.058952 317.75581 
L 355.533614 317.75581 
z
" clip-path="url(#pef8d17f8f9)" style="fill: #34495e; opacity: 0.85"/>
   </g>
   <g id="patch_17">
    <path d="M 378.339546 317.75581 
L 398.864884 317.75581 
L 398.864884 311.448177 
L 378.339546 311.448177 
z
" clip-path="url(#pef8d17f8f9)" style="fill: #34495e; opacity: 0.85"/>
   </g>
   <g id="patch_18">
    <path d="M 401.145478 317.75581 
L 421.670816 317.75581 
L 421.670816 90.681033 
L 401.145478 90.681033 
z
" clip-path="url(#pef8d17f8f9)" style="fill: #34495e; opacity: 0.85"/>
   </g>
   <g id="matplotlib.axis_1">
    <g id="xtick_1">
     <g id="line2d_1">
      <defs>
       <path id="m1a858519a4" d="M 0 0 
L 0 3.5 
" style="stroke: #000000; stroke-width: 0.8"/>
      </defs>
      <g>
       <use xlink:href="#m1a858519a4" x="57.916201" y="317.75581" style="stroke: #000000; stroke-width: 0.8"/>
      </g>
     </g>
     <g id="text_1">
      <!-- 0 -->
      <g transform="translate(54.734951 332.353466) scale(0.1 -0.1)">
       <defs>
        <path id="DejaVuSans-13" d="M 2034 4250 
Q 1547 4250 1301 3770 
Q 1056 3291 1056 2328 
Q 1056 1369 1301 889 
Q 1547 409 2034 409 
Q 2525 409 2770 889 
Q 3016 1369 3016 2328 
Q 3016 3291 2770 3770 
Q 2525 4250 2034 4250 
z
M 2034 4750 
Q 2819 4750 3233 4129 
Q 3647 3509 3647 2328 
Q 3647 1150 3233 529 
Q 2819 -91 2034 -91 
Q 1250 -91 836 529 
Q 422 1150 422 2328 
Q 422 3509 836 4129 
Q 1250 4750 2034 4750 
z
" transform="scale(0.015625)"/>
       </defs>
       <use xlink:href="#DejaVuSans-13"/>
      </g>
     </g>
    </g>
    <g id="xtick_2">
     <g id="line2d_2">
      <g>
       <use xlink:href="#m1a858519a4" x="103.528065" y="317.75581" style="stroke: #000000; stroke-width: 0.8"/>
      </g>
     </g>
     <g id="text_2">
      <!-- 2 -->
      <g transform="translate(100.346815 332.353466) scale(0.1 -0.1)">
       <defs>
        <path id="DejaVuSans-15" d="M 1228 531 
L 3431 531 
L 3431 0 
L 469 0 
L 469 531 
Q 828 903 1448 1529 
Q 2069 2156 2228 2338 
Q 2531 2678 2651 2914 
Q 2772 3150 2772 3378 
Q 2772 3750 2511 3984 
Q 2250 4219 1831 4219 
Q 1534 4219 1204 4116 
Q 875 4013 500 3803 
L 500 4441 
Q 881 4594 1212 4672 
Q 1544 4750 1819 4750 
Q 2544 4750 2975 4387 
Q 3406 4025 3406 3419 
Q 3406 3131 3298 2873 
Q 3191 2616 2906 2266 
Q 2828 2175 2409 1742 
Q 1991 1309 1228 531 
z
" transform="scale(0.015625)"/>
       </defs>
       <use xlink:href="#DejaVuSans-15"/>
      </g>
     </g>
    </g>
    <g id="xtick_3">
     <g id="line2d_3">
      <g>
       <use xlink:href="#m1a858519a4" x="149.139929" y="317.75581" style="stroke: #000000; stroke-width: 0.8"/>
      </g>
     </g>
     <g id="text_3">
      <!-- 4 -->
      <g transform="translate(145.958679 332.353466) scale(0.1 -0.1)">
       <defs>
        <path id="DejaVuSans-17" d="M 2419 4116 
L 825 1625 
L 2419 1625 
L 2419 4116 
z
M 2253 4666 
L 3047 4666 
L 3047 1625 
L 3713 1625 
L 3713 1100 
L 3047 1100 
L 3047 0 
L 2419 0 
L 2419 1100 
L 313 1100 
L 313 1709 
L 2253 4666 
z
" transform="scale(0.015625)"/>
       </defs>
       <use xlink:href="#DejaVuSans-17"/>
      </g>
     </g>
    </g>
    <g id="xtick_4">
     <g id="line2d_4">
      <g>
       <use xlink:href="#m1a858519a4" x="194.751793" y="317.75581" style="stroke: #000000; stroke-width: 0.8"/>
      </g>
     </g>
     <g id="text_4">
      <!-- 6 -->
      <g transform="translate(191.570543 332.353466) scale(0.1 -0.1)">
       <defs>
        <path id="DejaVuSans-19" d="M 2113 2584 
Q 1688 2584 1439 2293 
Q 1191 2003 1191 1497 
Q 1191 994 1439 701 
Q 1688 409 2113 409 
Q 2538 409 2786 701 
Q 3034 994 3034 1497 
Q 3034 2003 2786 2293 
Q 2538 2584 2113 2584 
z
M 3366 4563 
L 3366 3988 
Q 3128 4100 2886 4159 
Q 2644 4219 2406 4219 
Q 1781 4219 1451 3797 
Q 1122 3375 1075 2522 
Q 1259 2794 1537 2939 
Q 1816 3084 2150 3084 
Q 2853 3084 3261 2657 
Q 3669 2231 3669 1497 
Q 3669 778 3244 343 
Q 2819 -91 2113 -91 
Q 1303 -91 875 529 
Q 447 1150 447 2328 
Q 447 3434 972 4092 
Q 1497 4750 2381 4750 
Q 2619 4750 2861 4703 
Q 3103 4656 3366 4563 
z
" transform="scale(0.015625)"/>
       </defs>
       <use xlink:href="#DejaVuSans-19"/>
      </g>
     </g>
    </g>
    <g id="xtick_5">
     <g id="line2d_5">
      <g>
       <use xlink:href="#m1a858519a4" x="240.363657" y="317.75581" style="stroke: #000000; stroke-width: 0.8"/>
      </g>
     </g>
     <g id="text_5">
      <!-- 8 -->
      <g transform="translate(237.182407 332.353466) scale(0.1 -0.1)">
       <defs>
        <path id="DejaVuSans-1b" d="M 2034 2216 
Q 1584 2216 1326 1975 
Q 1069 1734 1069 1313 
Q 1069 891 1326 650 
Q 1584 409 2034 409 
Q 2484 409 2743 651 
Q 3003 894 3003 1313 
Q 3003 1734 2745 1975 
Q 2488 2216 2034 2216 
z
M 1403 2484 
Q 997 2584 770 2862 
Q 544 3141 544 3541 
Q 544 4100 942 4425 
Q 1341 4750 2034 4750 
Q 2731 4750 3128 4425 
Q 3525 4100 3525 3541 
Q 3525 3141 3298 2862 
Q 3072 2584 2669 2484 
Q 3125 2378 3379 2068 
Q 3634 1759 3634 1313 
Q 3634 634 3220 271 
Q 2806 -91 2034 -91 
Q 1263 -91 848 271 
Q 434 634 434 1313 
Q 434 1759 690 2068 
Q 947 2378 1403 2484 
z
M 1172 3481 
Q 1172 3119 1398 2916 
Q 1625 2713 2034 2713 
Q 2441 2713 2670 2916 
Q 2900 3119 2900 3481 
Q 2900 3844 2670 4047 
Q 2441 4250 2034 4250 
Q 1625 4250 1398 4047 
Q 1172 3844 1172 3481 
z
" transform="scale(0.015625)"/>
       </defs>
       <use xlink:href="#DejaVuSans-1b"/>
      </g>
     </g>
    </g>
    <g id="xtick_6">
     <g id="line2d_6">
      <g>
       <use xlink:href="#m1a858519a4" x="285.975521" y="317.75581" style="stroke: #000000; stroke-width: 0.8"/>
      </g>
     </g>
     <g id="text_6">
      <!-- 10 -->
      <g transform="translate(279.613021 332.353466) scale(0.1 -0.1)">
       <defs>
        <path id="DejaVuSans-14" d="M 794 531 
L 1825 531 
L 1825 4091 
L 703 3866 
L 703 4441 
L 1819 4666 
L 2450 4666 
L 2450 531 
L 3481 531 
L 3481 0 
L 794 0 
L 794 531 
z
" transform="scale(0.015625)"/>
       </defs>
       <use xlink:href="#DejaVuSans-14"/>
       <use xlink:href="#DejaVuSans-13" transform="translate(63.625 0)"/>
      </g>
     </g>
    </g>
    <g id="xtick_7">
     <g id="line2d_7">
      <g>
       <use xlink:href="#m1a858519a4" x="331.587385" y="317.75581" style="stroke: #000000; stroke-width: 0.8"/>
      </g>
     </g>
     <g id="text_7">
      <!-- 12 -->
      <g transform="translate(325.224885 332.353466) scale(0.1 -0.1)">
       <use xlink:href="#DejaVuSans-14"/>
       <use xlink:href="#DejaVuSans-15" transform="translate(63.625 0)"/>
      </g>
     </g>
    </g>
    <g id="xtick_8">
     <g id="line2d_8">
      <g>
       <use xlink:href="#m1a858519a4" x="377.199249" y="317.75581" style="stroke: #000000; stroke-width: 0.8"/>
      </g>
     </g>
     <g id="text_8">
      <!-- 14 -->
      <g transform="translate(370.836749 332.353466) scale(0.1 -0.1)">
       <use xlink:href="#DejaVuSans-14"/>
       <use xlink:href="#DejaVuSans-17" transform="translate(63.625 0)"/>
      </g>
     </g>
    </g>
    <g id="xtick_9">
     <g id="line2d_9">
      <g>
       <use xlink:href="#m1a858519a4" x="422.811113" y="317.75581" style="stroke: #000000; stroke-width: 0.8"/>
      </g>
     </g>
     <g id="text_9">
      <!-- 16 -->
      <g transform="translate(416.448613 332.353466) scale(0.1 -0.1)">
       <use xlink:href="#DejaVuSans-14"/>
       <use xlink:href="#DejaVuSans-19" transform="translate(63.625 0)"/>
      </g>
     </g>
    </g>
    <g id="text_10">
     <!-- distance d = final step - decisive error  (15 = 15+) -->
     <g transform="translate(113.412876 346.354248) scale(0.1 -0.1)">
      <defs>
       <path id="DejaVuSans-47" d="M 2906 2969 
L 2906 4863 
L 3481 4863 
L 3481 0 
L 2906 0 
L 2906 525 
Q 2725 213 2448 61 
Q 2172 -91 1784 -91 
Q 1150 -91 751 415 
Q 353 922 353 1747 
Q 353 2572 751 3078 
Q 1150 3584 1784 3584 
Q 2172 3584 2448 3432 
Q 2725 3281 2906 2969 
z
M 947 1747 
Q 947 1113 1208 752 
Q 1469 391 1925 391 
Q 2381 391 2643 752 
Q 2906 1113 2906 1747 
Q 2906 2381 2643 2742 
Q 2381 3103 1925 3103 
Q 1469 3103 1208 2742 
Q 947 2381 947 1747 
z
" transform="scale(0.015625)"/>
       <path id="DejaVuSans-4c" d="M 603 3500 
L 1178 3500 
L 1178 0 
L 603 0 
L 603 3500 
z
M 603 4863 
L 1178 4863 
L 1178 4134 
L 603 4134 
L 603 4863 
z
" transform="scale(0.015625)"/>
       <path id="DejaVuSans-56" d="M 2834 3397 
L 2834 2853 
Q 2591 2978 2328 3040 
Q 2066 3103 1784 3103 
Q 1356 3103 1142 2972 
Q 928 2841 928 2578 
Q 928 2378 1081 2264 
Q 1234 2150 1697 2047 
L 1894 2003 
Q 2506 1872 2764 1633 
Q 3022 1394 3022 966 
Q 3022 478 2636 193 
Q 2250 -91 1575 -91 
Q 1294 -91 989 -36 
Q 684 19 347 128 
L 347 722 
Q 666 556 975 473 
Q 1284 391 1588 391 
Q 1994 391 2212 530 
Q 2431 669 2431 922 
Q 2431 1156 2273 1281 
Q 2116 1406 1581 1522 
L 1381 1569 
Q 847 1681 609 1914 
Q 372 2147 372 2553 
Q 372 3047 722 3315 
Q 1072 3584 1716 3584 
Q 2034 3584 2315 3537 
Q 2597 3491 2834 3397 
z
" transform="scale(0.015625)"/>
       <path id="DejaVuSans-57" d="M 1172 4494 
L 1172 3500 
L 2356 3500 
L 2356 3053 
L 1172 3053 
L 1172 1153 
Q 1172 725 1289 603 
Q 1406 481 1766 481 
L 2356 481 
L 2356 0 
L 1766 0 
Q 1100 0 847 248 
Q 594 497 594 1153 
L 594 3053 
L 172 3053 
L 172 3500 
L 594 3500 
L 594 4494 
L 1172 4494 
z
" transform="scale(0.015625)"/>
       <path id="DejaVuSans-44" d="M 2194 1759 
Q 1497 1759 1228 1600 
Q 959 1441 959 1056 
Q 959 750 1161 570 
Q 1363 391 1709 391 
Q 2188 391 2477 730 
Q 2766 1069 2766 1631 
L 2766 1759 
L 2194 1759 
z
M 3341 1997 
L 3341 0 
L 2766 0 
L 2766 531 
Q 2569 213 2275 61 
Q 1981 -91 1556 -91 
Q 1019 -91 701 211 
Q 384 513 384 1019 
Q 384 1609 779 1909 
Q 1175 2209 1959 2209 
L 2766 2209 
L 2766 2266 
Q 2766 2663 2505 2880 
Q 2244 3097 1772 3097 
Q 1472 3097 1187 3025 
Q 903 2953 641 2809 
L 641 3341 
Q 956 3463 1253 3523 
Q 1550 3584 1831 3584 
Q 2591 3584 2966 3190 
Q 3341 2797 3341 1997 
z
" transform="scale(0.015625)"/>
       <path id="DejaVuSans-51" d="M 3513 2113 
L 3513 0 
L 2938 0 
L 2938 2094 
Q 2938 2591 2744 2837 
Q 2550 3084 2163 3084 
Q 1697 3084 1428 2787 
Q 1159 2491 1159 1978 
L 1159 0 
L 581 0 
L 581 3500 
L 1159 3500 
L 1159 2956 
Q 1366 3272 1645 3428 
Q 1925 3584 2291 3584 
Q 2894 3584 3203 3211 
Q 3513 2838 3513 2113 
z
" transform="scale(0.015625)"/>
       <path id="DejaVuSans-46" d="M 3122 3366 
L 3122 2828 
Q 2878 2963 2633 3030 
Q 2388 3097 2138 3097 
Q 1578 3097 1268 2742 
Q 959 2388 959 1747 
Q 959 1106 1268 751 
Q 1578 397 2138 397 
Q 2388 397 2633 464 
Q 2878 531 3122 666 
L 3122 134 
Q 2881 22 2623 -34 
Q 2366 -91 2075 -91 
Q 1284 -91 818 406 
Q 353 903 353 1747 
Q 353 2603 823 3093 
Q 1294 3584 2113 3584 
Q 2378 3584 2631 3529 
Q 2884 3475 3122 3366 
z
" transform="scale(0.015625)"/>
       <path id="DejaVuSans-48" d="M 3597 1894 
L 3597 1613 
L 953 1613 
Q 991 1019 1311 708 
Q 1631 397 2203 397 
Q 2534 397 2845 478 
Q 3156 559 3463 722 
L 3463 178 
Q 3153 47 2828 -22 
Q 2503 -91 2169 -91 
Q 1331 -91 842 396 
Q 353 884 353 1716 
Q 353 2575 817 3079 
Q 1281 3584 2069 3584 
Q 2775 3584 3186 3129 
Q 3597 2675 3597 1894 
z
M 3022 2063 
Q 3016 2534 2758 2815 
Q 2500 3097 2075 3097 
Q 1594 3097 1305 2825 
Q 1016 2553 972 2059 
L 3022 2063 
z
" transform="scale(0.015625)"/>
       <path id="DejaVuSans-3" transform="scale(0.015625)"/>
       <path id="DejaVuSans-20" d="M 678 2906 
L 4684 2906 
L 4684 2381 
L 678 2381 
L 678 2906 
z
M 678 1631 
L 4684 1631 
L 4684 1100 
L 678 1100 
L 678 1631 
z
" transform="scale(0.015625)"/>
       <path id="DejaVuSans-13af" d="M 3431 3500 
L 3431 0 
L 2853 0 
L 2853 3053 
L 1275 3053 
L 1275 0 
L 697 0 
L 697 3053 
L 147 3053 
L 147 3500 
L 697 3500 
L 697 3744 
Q 697 4316 967 4589 
Q 1238 4863 1797 4863 
L 2375 4863 
L 2375 4384 
L 1825 4384 
Q 1516 4384 1395 4259 
Q 1275 4134 1275 3809 
L 1275 3500 
L 3431 3500 
z
M 2853 4856 
L 3431 4856 
L 3431 4128 
L 2853 4128 
L 2853 4856 
z
" transform="scale(0.015625)"/>
       <path id="DejaVuSans-4f" d="M 603 4863 
L 1178 4863 
L 1178 0 
L 603 0 
L 603 4863 
z
" transform="scale(0.015625)"/>
       <path id="DejaVuSans-53" d="M 1159 525 
L 1159 -1331 
L 581 -1331 
L 581 3500 
L 1159 3500 
L 1159 2969 
Q 1341 3281 1617 3432 
Q 1894 3584 2278 3584 
Q 2916 3584 3314 3078 
Q 3713 2572 3713 1747 
Q 3713 922 3314 415 
Q 2916 -91 2278 -91 
Q 1894 -91 1617 61 
Q 1341 213 1159 525 
z
M 3116 1747 
Q 3116 2381 2855 2742 
Q 2594 3103 2138 3103 
Q 1681 3103 1420 2742 
Q 1159 2381 1159 1747 
Q 1159 1113 1420 752 
Q 1681 391 2138 391 
Q 2594 391 2855 752 
Q 3116 1113 3116 1747 
z
" transform="scale(0.015625)"/>
       <path id="DejaVuSans-10" d="M 313 2009 
L 1997 2009 
L 1997 1497 
L 313 1497 
L 313 2009 
z
" transform="scale(0.015625)"/>
       <path id="DejaVuSans-59" d="M 191 3500 
L 800 3500 
L 1894 563 
L 2988 3500 
L 3597 3500 
L 2284 0 
L 1503 0 
L 191 3500 
z
" transform="scale(0.015625)"/>
       <path id="DejaVuSans-55" d="M 2631 2963 
Q 2534 3019 2420 3045 
Q 2306 3072 2169 3072 
Q 1681 3072 1420 2755 
Q 1159 2438 1159 1844 
L 1159 0 
L 581 0 
L 581 3500 
L 1159 3500 
L 1159 2956 
Q 1341 3275 1631 3429 
Q 1922 3584 2338 3584 
Q 2397 3584 2469 3576 
Q 2541 3569 2628 3553 
L 2631 2963 
z
" transform="scale(0.015625)"/>
       <path id="DejaVuSans-52" d="M 1959 3097 
Q 1497 3097 1228 2736 
Q 959 2375 959 1747 
Q 959 1119 1226 758 
Q 1494 397 1959 397 
Q 2419 397 2687 759 
Q 2956 1122 2956 1747 
Q 2956 2369 2687 2733 
Q 2419 3097 1959 3097 
z
M 1959 3584 
Q 2709 3584 3137 3096 
Q 3566 2609 3566 1747 
Q 3566 888 3137 398 
Q 2709 -91 1959 -91 
Q 1206 -91 779 398 
Q 353 888 353 1747 
Q 353 2609 779 3096 
Q 1206 3584 1959 3584 
z
" transform="scale(0.015625)"/>
       <path id="DejaVuSans-b" d="M 1984 4856 
Q 1566 4138 1362 3434 
Q 1159 2731 1159 2009 
Q 1159 1288 1364 580 
Q 1569 -128 1984 -844 
L 1484 -844 
Q 1016 -109 783 600 
Q 550 1309 550 2009 
Q 550 2706 781 3412 
Q 1013 4119 1484 4856 
L 1984 4856 
z
" transform="scale(0.015625)"/>
       <path id="DejaVuSans-18" d="M 691 4666 
L 3169 4666 
L 3169 4134 
L 1269 4134 
L 1269 2991 
Q 1406 3038 1543 3061 
Q 1681 3084 1819 3084 
Q 2600 3084 3056 2656 
Q 3513 2228 3513 1497 
Q 3513 744 3044 326 
Q 2575 -91 1722 -91 
Q 1428 -91 1123 -41 
Q 819 9 494 109 
L 494 744 
Q 775 591 1075 516 
Q 1375 441 1709 441 
Q 2250 441 2565 725 
Q 2881 1009 2881 1497 
Q 2881 1984 2565 2268 
Q 2250 2553 1709 2553 
Q 1456 2553 1204 2497 
Q 953 2441 691 2322 
L 691 4666 
z
" transform="scale(0.015625)"/>
       <path id="DejaVuSans-e" d="M 2944 4013 
L 2944 2272 
L 4684 2272 
L 4684 1741 
L 2944 1741 
L 2944 0 
L 2419 0 
L 2419 1741 
L 678 1741 
L 678 2272 
L 2419 2272 
L 2419 4013 
L 2944 4013 
z
" transform="scale(0.015625)"/>
       <path id="DejaVuSans-c" d="M 513 4856 
L 1013 4856 
Q 1481 4119 1714 3412 
Q 1947 2706 1947 2009 
Q 1947 1309 1714 600 
Q 1481 -109 1013 -844 
L 513 -844 
Q 928 -128 1133 580 
Q 1338 1288 1338 2009 
Q 1338 2731 1133 3434 
Q 928 4138 513 4856 
z
" transform="scale(0.015625)"/>
      </defs>
      <use xlink:href="#DejaVuSans-47"/>
      <use xlink:href="#DejaVuSans-4c" transform="translate(63.484375 0)"/>
      <use xlink:href="#DejaVuSans-56" transform="translate(91.265625 0)"/>
      <use xlink:href="#DejaVuSans-57" transform="translate(143.359375 0)"/>
      <use xlink:href="#DejaVuSans-44" transform="translate(182.5625 0)"/>
      <use xlink:href="#DejaVuSans-51" transform="translate(243.84375 0)"/>
      <use xlink:href="#DejaVuSans-46" transform="translate(307.21875 0)"/>
      <use xlink:href="#DejaVuSans-48" transform="translate(362.203125 0)"/>
      <use xlink:href="#DejaVuSans-3" transform="translate(423.734375 0)"/>
      <use xlink:href="#DejaVuSans-47" transform="translate(455.515625 0)"/>
      <use xlink:href="#DejaVuSans-3" transform="translate(519 0)"/>
      <use xlink:href="#DejaVuSans-20" transform="translate(550.78125 0)"/>
      <use xlink:href="#DejaVuSans-3" transform="translate(634.578125 0)"/>
      <use xlink:href="#DejaVuSans-13af" transform="translate(666.359375 0)"/>
      <use xlink:href="#DejaVuSans-51" transform="translate(729.34375 0)"/>
      <use xlink:href="#DejaVuSans-44" transform="translate(792.71875 0)"/>
      <use xlink:href="#DejaVuSans-4f" transform="translate(854 0)"/>
      <use xlink:href="#DejaVuSans-3" transform="translate(881.78125 0)"/>
      <use xlink:href="#DejaVuSans-56" transform="translate(913.5625 0)"/>
      <use xlink:href="#DejaVuSans-57" transform="translate(965.65625 0)"/>
      <use xlink:href="#DejaVuSans-48" transform="translate(1004.859375 0)"/>
      <use xlink:href="#DejaVuSans-53" transform="translate(1066.390625 0)"/>
      <use xlink:href="#DejaVuSans-3" transform="translate(1129.875 0)"/>
      <use xlink:href="#DejaVuSans-10" transform="translate(1161.65625 0)"/>
      <use xlink:href="#DejaVuSans-3" transform="translate(1197.734375 0)"/>
      <use xlink:href="#DejaVuSans-47" transform="translate(1229.515625 0)"/>
      <use xlink:href="#DejaVuSans-48" transform="translate(1293 0)"/>
      <use xlink:href="#DejaVuSans-46" transform="translate(1354.53125 0)"/>
      <use xlink:href="#DejaVuSans-4c" transform="translate(1409.515625 0)"/>
      <use xlink:href="#DejaVuSans-56" transform="translate(1437.296875 0)"/>
      <use xlink:href="#DejaVuSans-4c" transform="translate(1489.390625 0)"/>
      <use xlink:href="#DejaVuSans-59" transform="translate(1517.171875 0)"/>
      <use xlink:href="#DejaVuSans-48" transform="translate(1576.359375 0)"/>
      <use xlink:href="#DejaVuSans-3" transform="translate(1637.890625 0)"/>
      <use xlink:href="#DejaVuSans-48" transform="translate(1669.671875 0)"/>
      <use xlink:href="#DejaVuSans-55" transform="translate(1731.203125 0)"/>
      <use xlink:href="#DejaVuSans-55" transform="translate(1770.5625 0)"/>
      <use xlink:href="#DejaVuSans-52" transform="translate(1809.46875 0)"/>
      <use xlink:href="#DejaVuSans-55" transform="translate(1870.65625 0)"/>
      <use xlink:href="#DejaVuSans-3" transform="translate(1911.765625 0)"/>
      <use xlink:href="#DejaVuSans-3" transform="translate(1943.546875 0)"/>
      <use xlink:href="#DejaVuSans-b" transform="translate(1975.328125 0)"/>
      <use xlink:href="#DejaVuSans-14" transform="translate(2014.34375 0)"/>
      <use xlink:href="#DejaVuSans-18" transform="translate(2077.96875 0)"/>
      <use xlink:href="#DejaVuSans-3" transform="translate(2141.59375 0)"/>
      <use xlink:href="#DejaVuSans-20" transform="translate(2173.375 0)"/>
      <use xlink:href="#DejaVuSans-3" transform="translate(2257.171875 0)"/>
      <use xlink:href="#DejaVuSans-14" transform="translate(2288.953125 0)"/>
      <use xlink:href="#DejaVuSans-18" transform="translate(2352.578125 0)"/>
      <use xlink:href="#DejaVuSans-e" transform="translate(2416.203125 0)"/>
      <use xlink:href="#DejaVuSans-c" transform="translate(2500 0)"/>
     </g>
    </g>
   </g>
   <g id="matplotlib.axis_2">
    <g id="ytick_1">
     <g id="line2d_10">
      <defs>
       <path id="m2751c45d28" d="M 0 0 
L -3.5 0 
" style="stroke: #000000; stroke-width: 0.8"/>
      </defs>
      <g>
       <use xlink:href="#m2751c45d28" x="40.925781" y="317.75581" style="stroke: #000000; stroke-width: 0.8"/>
      </g>
     </g>
     <g id="text_11">
      <!-- 0 -->
      <g transform="translate(27.563281 321.554638) scale(0.1 -0.1)">
       <use xlink:href="#DejaVuSans-13"/>
      </g>
     </g>
    </g>
    <g id="ytick_2">
     <g id="line2d_11">
      <g>
       <use xlink:href="#m2751c45d28" x="40.925781" y="286.217647" style="stroke: #000000; stroke-width: 0.8"/>
      </g>
     </g>
     <g id="text_12">
      <!-- 5 -->
      <g transform="translate(27.563281 290.016475) scale(0.1 -0.1)">
       <use xlink:href="#DejaVuSans-18"/>
      </g>
     </g>
    </g>
    <g id="ytick_3">
     <g id="line2d_12">
      <g>
       <use xlink:href="#m2751c45d28" x="40.925781" y="254.679483" style="stroke: #000000; stroke-width: 0.8"/>
      </g>
     </g>
     <g id="text_13">
      <!-- 10 -->
      <g transform="translate(21.200781 258.478311) scale(0.1 -0.1)">
       <use xlink:href="#DejaVuSans-14"/>
       <use xlink:href="#DejaVuSans-13" transform="translate(63.625 0)"/>
      </g>
     </g>
    </g>
    <g id="ytick_4">
     <g id="line2d_13">
      <g>
       <use xlink:href="#m2751c45d28" x="40.925781" y="223.14132" style="stroke: #000000; stroke-width: 0.8"/>
      </g>
     </g>
     <g id="text_14">
      <!-- 15 -->
      <g transform="translate(21.200781 226.940148) scale(0.1 -0.1)">
       <use xlink:href="#DejaVuSans-14"/>
       <use xlink:href="#DejaVuSans-18" transform="translate(63.625 0)"/>
      </g>
     </g>
    </g>
    <g id="ytick_5">
     <g id="line2d_14">
      <g>
       <use xlink:href="#m2751c45d28" x="40.925781" y="191.603156" style="stroke: #000000; stroke-width: 0.8"/>
      </g>
     </g>
     <g id="text_15">
      <!-- 20 -->
      <g transform="translate(21.200781 195.401984) scale(0.1 -0.1)">
       <use xlink:href="#DejaVuSans-15"/>
       <use xlink:href="#DejaVuSans-13" transform="translate(63.625 0)"/>
      </g>
     </g>
    </g>
    <g id="ytick_6">
     <g id="line2d_15">
      <g>
       <use xlink:href="#m2751c45d28" x="40.925781" y="160.064993" style="stroke: #000000; stroke-width: 0.8"/>
      </g>
     </g>
     <g id="text_16">
      <!-- 25 -->
      <g transform="translate(21.200781 163.863821) scale(0.1 -0.1)">
       <use xlink:href="#DejaVuSans-15"/>
       <use xlink:href="#DejaVuSans-18" transform="translate(63.625 0)"/>
      </g>
     </g>
    </g>
    <g id="ytick_7">
     <g id="line2d_16">
      <g>
       <use xlink:href="#m2751c45d28" x="40.925781" y="128.526829" style="stroke: #000000; stroke-width: 0.8"/>
      </g>
     </g>
     <g id="text_17">
      <!-- 30 -->
      <g transform="translate(21.200781 132.325658) scale(0.1 -0.1)">
       <defs>
        <path id="DejaVuSans-16" d="M 2597 2516 
Q 3050 2419 3304 2112 
Q 3559 1806 3559 1356 
Q 3559 666 3084 287 
Q 2609 -91 1734 -91 
Q 1441 -91 1130 -33 
Q 819 25 488 141 
L 488 750 
Q 750 597 1062 519 
Q 1375 441 1716 441 
Q 2309 441 2620 675 
Q 2931 909 2931 1356 
Q 2931 1769 2642 2001 
Q 2353 2234 1838 2234 
L 1294 2234 
L 1294 2753 
L 1863 2753 
Q 2328 2753 2575 2939 
Q 2822 3125 2822 3475 
Q 2822 3834 2567 4026 
Q 2313 4219 1838 4219 
Q 1578 4219 1281 4162 
Q 984 4106 628 3988 
L 628 4550 
Q 988 4650 1302 4700 
Q 1616 4750 1894 4750 
Q 2613 4750 3031 4423 
Q 3450 4097 3450 3541 
Q 3450 3153 3228 2886 
Q 3006 2619 2597 2516 
z
" transform="scale(0.015625)"/>
       </defs>
       <use xlink:href="#DejaVuSans-16"/>
       <use xlink:href="#DejaVuSans-13" transform="translate(63.625 0)"/>
      </g>
     </g>
    </g>
    <g id="ytick_8">
     <g id="line2d_17">
      <g>
       <use xlink:href="#m2751c45d28" x="40.925781" y="96.988666" style="stroke: #000000; stroke-width: 0.8"/>
      </g>
     </g>
     <g id="text_18">
      <!-- 35 -->
      <g transform="translate(21.200781 100.787494) scale(0.1 -0.1)">
       <use xlink:href="#DejaVuSans-16"/>
       <use xlink:href="#DejaVuSans-18" transform="translate(63.625 0)"/>
      </g>
     </g>
    </g>
    <g id="text_19">
     <!-- number of trajectories -->
     <g transform="translate(14.798438 254.493115) rotate(-90) scale(0.1 -0.1)">
      <defs>
       <path id="DejaVuSans-58" d="M 544 1381 
L 544 3500 
L 1119 3500 
L 1119 1403 
Q 1119 906 1312 657 
Q 1506 409 1894 409 
Q 2359 409 2629 706 
Q 2900 1003 2900 1516 
L 2900 3500 
L 3475 3500 
L 3475 0 
L 2900 0 
L 2900 538 
Q 2691 219 2414 64 
Q 2138 -91 1772 -91 
Q 1169 -91 856 284 
Q 544 659 544 1381 
z
M 1991 3584 
L 1991 3584 
z
" transform="scale(0.015625)"/>
       <path id="DejaVuSans-50" d="M 3328 2828 
Q 3544 3216 3844 3400 
Q 4144 3584 4550 3584 
Q 5097 3584 5394 3201 
Q 5691 2819 5691 2113 
L 5691 0 
L 5113 0 
L 5113 2094 
Q 5113 2597 4934 2840 
Q 4756 3084 4391 3084 
Q 3944 3084 3684 2787 
Q 3425 2491 3425 1978 
L 3425 0 
L 2847 0 
L 2847 2094 
Q 2847 2600 2669 2842 
Q 2491 3084 2119 3084 
Q 1678 3084 1418 2786 
Q 1159 2488 1159 1978 
L 1159 0 
L 581 0 
L 581 3500 
L 1159 3500 
L 1159 2956 
Q 1356 3278 1631 3431 
Q 1906 3584 2284 3584 
Q 2666 3584 2933 3390 
Q 3200 3197 3328 2828 
z
" transform="scale(0.015625)"/>
       <path id="DejaVuSans-45" d="M 3116 1747 
Q 3116 2381 2855 2742 
Q 2594 3103 2138 3103 
Q 1681 3103 1420 2742 
Q 1159 2381 1159 1747 
Q 1159 1113 1420 752 
Q 1681 391 2138 391 
Q 2594 391 2855 752 
Q 3116 1113 3116 1747 
z
M 1159 2969 
Q 1341 3281 1617 3432 
Q 1894 3584 2278 3584 
Q 2916 3584 3314 3078 
Q 3713 2572 3713 1747 
Q 3713 922 3314 415 
Q 2916 -91 2278 -91 
Q 1894 -91 1617 61 
Q 1341 213 1159 525 
L 1159 0 
L 581 0 
L 581 4863 
L 1159 4863 
L 1159 2969 
z
" transform="scale(0.015625)"/>
       <path id="DejaVuSans-49" d="M 2375 4863 
L 2375 4384 
L 1825 4384 
Q 1516 4384 1395 4259 
Q 1275 4134 1275 3809 
L 1275 3500 
L 2222 3500 
L 2222 3053 
L 1275 3053 
L 1275 0 
L 697 0 
L 697 3053 
L 147 3053 
L 147 3500 
L 697 3500 
L 697 3744 
Q 697 4328 969 4595 
Q 1241 4863 1831 4863 
L 2375 4863 
z
" transform="scale(0.015625)"/>
       <path id="DejaVuSans-4d" d="M 603 3500 
L 1178 3500 
L 1178 -63 
Q 1178 -731 923 -1031 
Q 669 -1331 103 -1331 
L -116 -1331 
L -116 -844 
L 38 -844 
Q 366 -844 484 -692 
Q 603 -541 603 -63 
L 603 3500 
z
M 603 4863 
L 1178 4863 
L 1178 4134 
L 603 4134 
L 603 4863 
z
" transform="scale(0.015625)"/>
      </defs>
      <use xlink:href="#DejaVuSans-51"/>
      <use xlink:href="#DejaVuSans-58" transform="translate(63.375 0)"/>
      <use xlink:href="#DejaVuSans-50" transform="translate(126.75 0)"/>
      <use xlink:href="#DejaVuSans-45" transform="translate(224.15625 0)"/>
      <use xlink:href="#DejaVuSans-48" transform="translate(287.640625 0)"/>
      <use xlink:href="#DejaVuSans-55" transform="translate(349.171875 0)"/>
      <use xlink:href="#DejaVuSans-3" transform="translate(390.28125 0)"/>
      <use xlink:href="#DejaVuSans-52" transform="translate(422.0625 0)"/>
      <use xlink:href="#DejaVuSans-49" transform="translate(483.25 0)"/>
      <use xlink:href="#DejaVuSans-3" transform="translate(518.453125 0)"/>
      <use xlink:href="#DejaVuSans-57" transform="translate(550.234375 0)"/>
      <use xlink:href="#DejaVuSans-55" transform="translate(589.4375 0)"/>
      <use xlink:href="#DejaVuSans-44" transform="translate(630.546875 0)"/>
      <use xlink:href="#DejaVuSans-4d" transform="translate(691.828125 0)"/>
      <use xlink:href="#DejaVuSans-48" transform="translate(719.609375 0)"/>
      <use xlink:href="#DejaVuSans-46" transform="translate(781.140625 0)"/>
      <use xlink:href="#DejaVuSans-57" transform="translate(836.125 0)"/>
      <use xlink:href="#DejaVuSans-52" transform="translate(875.328125 0)"/>
      <use xlink:href="#DejaVuSans-55" transform="translate(936.515625 0)"/>
      <use xlink:href="#DejaVuSans-4c" transform="translate(977.625 0)"/>
      <use xlink:href="#DejaVuSans-48" transform="translate(1005.40625 0)"/>
      <use xlink:href="#DejaVuSans-56" transform="translate(1066.9375 0)"/>
     </g>
    </g>
   </g>
   <g id="line2d_18">
    <path d="M 69.319167 317.75581 
L 69.319167 79.327294 
" clip-path="url(#pef8d17f8f9)" style="fill: none; stroke: #c0392b; stroke-width: 2; stroke-linecap: square"/>
   </g>
   <g id="patch_19">
    <path d="M 40.925781 317.75581 
L 40.925781 79.327294 
" style="fill: none; stroke: #000000; stroke-width: 0.8; stroke-linejoin: miter; stroke-linecap: square"/>
   </g>
   <g id="patch_20">
    <path d="M 40.925781 317.75581 
L 439.801532 317.75581 
" style="fill: none; stroke: #000000; stroke-width: 0.8; stroke-linejoin: miter; stroke-linecap: square"/>
   </g>
   <g id="text_20">
    <!-- only 4.3% at d=0 -->
    <g style="fill: #c0392b" transform="translate(73.880353 141.253662) scale(0.08 -0.08)">
     <defs>
      <path id="DejaVuSans-5c" d="M 2059 -325 
Q 1816 -950 1584 -1140 
Q 1353 -1331 966 -1331 
L 506 -1331 
L 506 -850 
L 844 -850 
Q 1081 -850 1212 -737 
Q 1344 -625 1503 -206 
L 1606 56 
L 191 3500 
L 800 3500 
L 1894 763 
L 2988 3500 
L 3597 3500 
L 2059 -325 
z
" transform="scale(0.015625)"/>
      <path id="DejaVuSans-11" d="M 684 794 
L 1344 794 
L 1344 0 
L 684 0 
L 684 794 
z
" transform="scale(0.015625)"/>
      <path id="DejaVuSans-8" d="M 4653 2053 
Q 4381 2053 4226 1822 
Q 4072 1591 4072 1178 
Q 4072 772 4226 539 
Q 4381 306 4653 306 
Q 4919 306 5073 539 
Q 5228 772 5228 1178 
Q 5228 1588 5073 1820 
Q 4919 2053 4653 2053 
z
M 4653 2450 
Q 5147 2450 5437 2106 
Q 5728 1763 5728 1178 
Q 5728 594 5436 251 
Q 5144 -91 4653 -91 
Q 4153 -91 3862 251 
Q 3572 594 3572 1178 
Q 3572 1766 3864 2108 
Q 4156 2450 4653 2450 
z
M 1428 4353 
Q 1159 4353 1004 4120 
Q 850 3888 850 3481 
Q 850 3069 1003 2837 
Q 1156 2606 1428 2606 
Q 1700 2606 1854 2837 
Q 2009 3069 2009 3481 
Q 2009 3884 1853 4118 
Q 1697 4353 1428 4353 
z
M 4250 4750 
L 4750 4750 
L 1831 -91 
L 1331 -91 
L 4250 4750 
z
M 1428 4750 
Q 1922 4750 2215 4408 
Q 2509 4066 2509 3481 
Q 2509 2891 2217 2550 
Q 1925 2209 1428 2209 
Q 931 2209 642 2551 
Q 353 2894 353 3481 
Q 353 4063 643 4406 
Q 934 4750 1428 4750 
z
" transform="scale(0.015625)"/>
     </defs>
     <use xlink:href="#DejaVuSans-52"/>
     <use xlink:href="#DejaVuSans-51" transform="translate(61.1875 0)"/>
     <use xlink:href="#DejaVuSans-4f" transform="translate(124.5625 0)"/>
     <use xlink:href="#DejaVuSans-5c" transform="translate(152.34375 0)"/>
     <use xlink:href="#DejaVuSans-3" transform="translate(211.53125 0)"/>
     <use xlink:href="#DejaVuSans-17" transform="translate(243.3125 0)"/>
     <use xlink:href="#DejaVuSans-11" transform="translate(306.9375 0)"/>
     <use xlink:href="#DejaVuSans-16" transform="translate(338.71875 0)"/>
     <use xlink:href="#DejaVuSans-8" transform="translate(402.34375 0)"/>
     <use xlink:href="#DejaVuSans-3" transform="translate(497.359375 0)"/>
     <use xlink:href="#DejaVuSans-44" transform="translate(529.140625 0)"/>
     <use xlink:href="#DejaVuSans-57" transform="translate(590.421875 0)"/>
     <use xlink:href="#DejaVuSans-3" transform="translate(629.625 0)"/>
     <use xlink:href="#DejaVuSans-47" transform="translate(661.40625 0)"/>
     <use xlink:href="#DejaVuSans-20" transform="translate(724.890625 0)"/>
     <use xlink:href="#DejaVuSans-13" transform="translate(808.6875 0)"/>
    </g>
    <!-- (all retry-at-crash can reach) -->
    <g style="fill: #c0392b" transform="translate(73.880353 150.855849) scale(0.08 -0.08)">
     <defs>
      <path id="DejaVuSans-4b" d="M 3513 2113 
L 3513 0 
L 2938 0 
L 2938 2094 
Q 2938 2591 2744 2837 
Q 2550 3084 2163 3084 
Q 1697 3084 1428 2787 
Q 1159 2491 1159 1978 
L 1159 0 
L 581 0 
L 581 4863 
L 1159 4863 
L 1159 2956 
Q 1366 3272 1645 3428 
Q 1925 3584 2291 3584 
Q 2894 3584 3203 3211 
Q 3513 2838 3513 2113 
z
" transform="scale(0.015625)"/>
     </defs>
     <use xlink:href="#DejaVuSans-b"/>
     <use xlink:href="#DejaVuSans-44" transform="translate(39.015625 0)"/>
     <use xlink:href="#DejaVuSans-4f" transform="translate(100.296875 0)"/>
     <use xlink:href="#DejaVuSans-4f" transform="translate(128.078125 0)"/>
     <use xlink:href="#DejaVuSans-3" transform="translate(155.859375 0)"/>
     <use xlink:href="#DejaVuSans-55" transform="translate(187.640625 0)"/>
     <use xlink:href="#DejaVuSans-48" transform="translate(226.546875 0)"/>
     <use xlink:href="#DejaVuSans-57" transform="translate(288.078125 0)"/>
     <use xlink:href="#DejaVuSans-55" transform="translate(327.28125 0)"/>
     <use xlink:href="#DejaVuSans-5c" transform="translate(368.390625 0)"/>
     <use xlink:href="#DejaVuSans-10" transform="translate(425.828125 0)"/>
     <use xlink:href="#DejaVuSans-44" transform="translate(461.90625 0)"/>
     <use xlink:href="#DejaVuSans-57" transform="translate(523.1875 0)"/>
     <use xlink:href="#DejaVuSans-10" transform="translate(562.390625 0)"/>
     <use xlink:href="#DejaVuSans-46" transform="translate(598.46875 0)"/>
     <use xlink:href="#DejaVuSans-55" transform="translate(653.453125 0)"/>
     <use xlink:href="#DejaVuSans-44" transform="translate(694.5625 0)"/>
     <use xlink:href="#DejaVuSans-56" transform="translate(755.84375 0)"/>
     <use xlink:href="#DejaVuSans-4b" transform="translate(807.9375 0)"/>
     <use xlink:href="#DejaVuSans-3" transform="translate(871.3125 0)"/>
     <use xlink:href="#DejaVuSans-46" transform="translate(903.09375 0)"/>
     <use xlink:href="#DejaVuSans-44" transform="translate(958.078125 0)"/>
     <use xlink:href="#DejaVuSans-51" transform="translate(1019.359375 0)"/>
     <use xlink:href="#DejaVuSans-3" transform="translate(1082.734375 0)"/>
     <use xlink:href="#DejaVuSans-55" transform="translate(1114.515625 0)"/>
     <use xlink:href="#DejaVuSans-48" transform="translate(1153.421875 0)"/>
     <use xlink:href="#DejaVuSans-44" transform="translate(1214.953125 0)"/>
     <use xlink:href="#DejaVuSans-46" transform="translate(1276.234375 0)"/>
     <use xlink:href="#DejaVuSans-4b" transform="translate(1331.21875 0)"/>
     <use xlink:href="#DejaVuSans-c" transform="translate(1394.59375 0)"/>
    </g>
   </g>
   <g id="text_21">
    <!-- A. Real Who&amp;When: how far upstream -->
    <g transform="translate(125.378344 58.924013) scale(0.12 -0.12)">
     <defs>
      <path id="DejaVuSans-24" d="M 2188 4044 
L 1331 1722 
L 3047 1722 
L 2188 4044 
z
M 1831 4666 
L 2547 4666 
L 4325 0 
L 3669 0 
L 3244 1197 
L 1141 1197 
L 716 0 
L 50 0 
L 1831 4666 
z
" transform="scale(0.015625)"/>
      <path id="DejaVuSans-35" d="M 2841 2188 
Q 3044 2119 3236 1894 
Q 3428 1669 3622 1275 
L 4263 0 
L 3584 0 
L 2988 1197 
Q 2756 1666 2539 1819 
Q 2322 1972 1947 1972 
L 1259 1972 
L 1259 0 
L 628 0 
L 628 4666 
L 2053 4666 
Q 2853 4666 3247 4331 
Q 3641 3997 3641 3322 
Q 3641 2881 3436 2590 
Q 3231 2300 2841 2188 
z
M 1259 4147 
L 1259 2491 
L 2053 2491 
Q 2509 2491 2742 2702 
Q 2975 2913 2975 3322 
Q 2975 3731 2742 3939 
Q 2509 4147 2053 4147 
L 1259 4147 
z
" transform="scale(0.015625)"/>
      <path id="DejaVuSans-3a" d="M 213 4666 
L 850 4666 
L 1831 722 
L 2809 4666 
L 3519 4666 
L 4500 722 
L 5478 4666 
L 6119 4666 
L 4947 0 
L 4153 0 
L 3169 4050 
L 2175 0 
L 1381 0 
L 213 4666 
z
" transform="scale(0.015625)"/>
      <path id="DejaVuSans-9" d="M 1556 2509 
Q 1272 2256 1139 2004 
Q 1006 1753 1006 1478 
Q 1006 1022 1337 719 
Q 1669 416 2169 416 
Q 2466 416 2725 514 
Q 2984 613 3213 813 
L 1556 2509 
z
M 1997 2859 
L 3584 1234 
Q 3769 1513 3872 1830 
Q 3975 2147 3994 2503 
L 4575 2503 
Q 4538 2091 4375 1687 
Q 4213 1284 3922 891 
L 4794 0 
L 4006 0 
L 3559 459 
Q 3234 181 2878 45 
Q 2522 -91 2113 -91 
Q 1359 -91 881 339 
Q 403 769 403 1441 
Q 403 1841 612 2192 
Q 822 2544 1241 2853 
Q 1091 3050 1012 3245 
Q 934 3441 934 3628 
Q 934 4134 1281 4442 
Q 1628 4750 2203 4750 
Q 2463 4750 2720 4694 
Q 2978 4638 3244 4525 
L 3244 3956 
Q 2972 4103 2725 4179 
Q 2478 4256 2266 4256 
Q 1938 4256 1733 4082 
Q 1528 3909 1528 3634 
Q 1528 3475 1620 3314 
Q 1713 3153 1997 2859 
z
" transform="scale(0.015625)"/>
      <path id="DejaVuSans-1d" d="M 750 794 
L 1409 794 
L 1409 0 
L 750 0 
L 750 794 
z
M 750 3309 
L 1409 3309 
L 1409 2516 
L 750 2516 
L 750 3309 
z
" transform="scale(0.015625)"/>
      <path id="DejaVuSans-5a" d="M 269 3500 
L 844 3500 
L 1563 769 
L 2278 3500 
L 2956 3500 
L 3675 769 
L 4391 3500 
L 4966 3500 
L 4050 0 
L 3372 0 
L 2619 2869 
L 1863 0 
L 1184 0 
L 269 3500 
z
" transform="scale(0.015625)"/>
     </defs>
     <use xlink:href="#DejaVuSans-24"/>
     <use xlink:href="#DejaVuSans-11" transform="translate(66.65625 0)"/>
     <use xlink:href="#DejaVuSans-3" transform="translate(98.4375 0)"/>
     <use xlink:href="#DejaVuSans-35" transform="translate(130.21875 0)"/>
     <use xlink:href="#DejaVuSans-48" transform="translate(195.21875 0)"/>
     <use xlink:href="#DejaVuSans-44" transform="translate(256.75 0)"/>
     <use xlink:href="#DejaVuSans-4f" transform="translate(318.03125 0)"/>
     <use xlink:href="#DejaVuSans-3" transform="translate(345.8125 0)"/>
     <use xlink:href="#DejaVuSans-3a" transform="translate(377.59375 0)"/>
     <use xlink:href="#DejaVuSans-4b" transform="translate(476.46875 0)"/>
     <use xlink:href="#DejaVuSans-52" transform="translate(539.84375 0)"/>
     <use xlink:href="#DejaVuSans-9" transform="translate(601.03125 0)"/>
     <use xlink:href="#DejaVuSans-3a" transform="translate(679.015625 0)"/>
     <use xlink:href="#DejaVuSans-4b" transform="translate(777.890625 0)"/>
     <use xlink:href="#DejaVuSans-48" transform="translate(841.265625 0)"/>
     <use xlink:href="#DejaVuSans-51" transform="translate(902.796875 0)"/>
     <use xlink:href="#DejaVuSans-1d" transform="translate(966.171875 0)"/>
     <use xlink:href="#DejaVuSans-3" transform="translate(999.859375 0)"/>
     <use xlink:href="#DejaVuSans-4b" transform="translate(1031.640625 0)"/>
     <use xlink:href="#DejaVuSans-52" transform="translate(1095.015625 0)"/>
     <use xlink:href="#DejaVuSans-5a" transform="translate(1156.203125 0)"/>
     <use xlink:href="#DejaVuSans-3" transform="translate(1237.984375 0)"/>
     <use xlink:href="#DejaVuSans-49" transform="translate(1269.765625 0)"/>
     <use xlink:href="#DejaVuSans-44" transform="translate(1304.96875 0)"/>
     <use xlink:href="#DejaVuSans-55" transform="translate(1366.25 0)"/>
     <use xlink:href="#DejaVuSans-3" transform="translate(1407.359375 0)"/>
     <use xlink:href="#DejaVuSans-58" transform="translate(1439.140625 0)"/>
     <use xlink:href="#DejaVuSans-53" transform="translate(1502.515625 0)"/>
     <use xlink:href="#DejaVuSans-56" transform="translate(1566 0)"/>
     <use xlink:href="#DejaVuSans-57" transform="translate(1618.09375 0)"/>
     <use xlink:href="#DejaVuSans-55" transform="translate(1657.296875 0)"/>
     <use xlink:href="#DejaVuSans-48" transform="translate(1696.203125 0)"/>
     <use xlink:href="#DejaVuSans-44" transform="translate(1757.734375 0)"/>
     <use xlink:href="#DejaVuSans-50" transform="translate(1819.015625 0)"/>
    </g>
    <!-- the decisive error sits -->
    <g transform="translate(175.498032 73.327294) scale(0.12 -0.12)">
     <use xlink:href="#DejaVuSans-57"/>
     <use xlink:href="#DejaVuSans-4b" transform="translate(39.203125 0)"/>
     <use xlink:href="#DejaVuSans-48" transform="translate(102.578125 0)"/>
     <use xlink:href="#DejaVuSans-3" transform="translate(164.109375 0)"/>
     <use xlink:href="#DejaVuSans-47" transform="translate(195.890625 0)"/>
     <use xlink:href="#DejaVuSans-48" transform="translate(259.375 0)"/>
     <use xlink:href="#DejaVuSans-46" transform="translate(320.90625 0)"/>
     <use xlink:href="#DejaVuSans-4c" transform="translate(375.890625 0)"/>
     <use xlink:href="#DejaVuSans-56" transform="translate(403.671875 0)"/>
     <use xlink:href="#DejaVuSans-4c" transform="translate(455.765625 0)"/>
     <use xlink:href="#DejaVuSans-59" transform="translate(483.546875 0)"/>
     <use xlink:href="#DejaVuSans-48" transform="translate(542.734375 0)"/>
     <use xlink:href="#DejaVuSans-3" transform="translate(604.265625 0)"/>
     <use xlink:href="#DejaVuSans-48" transform="translate(636.046875 0)"/>
     <use xlink:href="#DejaVuSans-55" transform="translate(697.578125 0)"/>
     <use xlink:href="#DejaVuSans-55" transform="translate(736.9375 0)"/>
     <use xlink:href="#DejaVuSans-52" transform="translate(775.84375 0)"/>
     <use xlink:href="#DejaVuSans-55" transform="translate(837.03125 0)"/>
     <use xlink:href="#DejaVuSans-3" transform="translate(878.140625 0)"/>
     <use xlink:href="#DejaVuSans-56" transform="translate(909.921875 0)"/>
     <use xlink:href="#DejaVuSans-4c" transform="translate(962.015625 0)"/>
     <use xlink:href="#DejaVuSans-57" transform="translate(989.796875 0)"/>
     <use xlink:href="#DejaVuSans-56" transform="translate(1029 0)"/>
    </g>
   </g>
  </g>
  <g id="axes_2">
   <g id="patch_21">
    <path d="M 487.109225 317.75581 
L 885.984976 317.75581 
L 885.984976 79.327294 
L 487.109225 79.327294 
z
" style="fill: #ffffff"/>
   </g>
   <g id="matplotlib.axis_3">
    <g id="xtick_10">
     <g id="line2d_19">
      <g>
       <use xlink:href="#m1a858519a4" x="492.735999" y="317.75581" style="stroke: #000000; stroke-width: 0.8"/>
      </g>
     </g>
     <g id="text_22">
      <!-- 0 -->
      <g transform="translate(489.554749 332.353466) scale(0.1 -0.1)">
       <use xlink:href="#DejaVuSans-13"/>
      </g>
     </g>
    </g>
    <g id="xtick_11">
     <g id="line2d_20">
      <g>
       <use xlink:href="#m1a858519a4" x="555.255709" y="317.75581" style="stroke: #000000; stroke-width: 0.8"/>
      </g>
     </g>
     <g id="text_23">
      <!-- 10 -->
      <g transform="translate(548.893209 332.353466) scale(0.1 -0.1)">
       <use xlink:href="#DejaVuSans-14"/>
       <use xlink:href="#DejaVuSans-13" transform="translate(63.625 0)"/>
      </g>
     </g>
    </g>
    <g id="xtick_12">
     <g id="line2d_21">
      <g>
       <use xlink:href="#m1a858519a4" x="617.775419" y="317.75581" style="stroke: #000000; stroke-width: 0.8"/>
      </g>
     </g>
     <g id="text_24">
      <!-- 20 -->
      <g transform="translate(611.412919 332.353466) scale(0.1 -0.1)">
       <use xlink:href="#DejaVuSans-15"/>
       <use xlink:href="#DejaVuSans-13" transform="translate(63.625 0)"/>
      </g>
     </g>
    </g>
    <g id="xtick_13">
     <g id="line2d_22">
      <g>
       <use xlink:href="#m1a858519a4" x="680.295129" y="317.75581" style="stroke: #000000; stroke-width: 0.8"/>
      </g>
     </g>
     <g id="text_25">
      <!-- 30 -->
      <g transform="translate(673.932629 332.353466) scale(0.1 -0.1)">
       <use xlink:href="#DejaVuSans-16"/>
       <use xlink:href="#DejaVuSans-13" transform="translate(63.625 0)"/>
      </g>
     </g>
    </g>
    <g id="xtick_14">
     <g id="line2d_23">
      <g>
       <use xlink:href="#m1a858519a4" x="742.81484" y="317.75581" style="stroke: #000000; stroke-width: 0.8"/>
      </g>
     </g>
     <g id="text_26">
      <!-- 40 -->
      <g transform="translate(736.45234 332.353466) scale(0.1 -0.1)">
       <use xlink:href="#DejaVuSans-17"/>
       <use xlink:href="#DejaVuSans-13" transform="translate(63.625 0)"/>
      </g>
     </g>
    </g>
    <g id="xtick_15">
     <g id="line2d_24">
      <g>
       <use xlink:href="#m1a858519a4" x="805.33455" y="317.75581" style="stroke: #000000; stroke-width: 0.8"/>
      </g>
     </g>
     <g id="text_27">
      <!-- 50 -->
      <g transform="translate(798.97205 332.353466) scale(0.1 -0.1)">
       <use xlink:href="#DejaVuSans-18"/>
       <use xlink:href="#DejaVuSans-13" transform="translate(63.625 0)"/>
      </g>
     </g>
    </g>
    <g id="xtick_16">
     <g id="line2d_25">
      <g>
       <use xlink:href="#m1a858519a4" x="867.85426" y="317.75581" style="stroke: #000000; stroke-width: 0.8"/>
      </g>
     </g>
     <g id="text_28">
      <!-- 60 -->
      <g transform="translate(861.49176 332.353466) scale(0.1 -0.1)">
       <use xlink:href="#DejaVuSans-19"/>
       <use xlink:href="#DejaVuSans-13" transform="translate(63.625 0)"/>
      </g>
     </g>
    </g>
    <g id="text_29">
     <!-- retry budget (step-executions) -->
     <g transform="translate(610.151788 346.354248) scale(0.1 -0.1)">
      <defs>
       <path id="DejaVuSans-4a" d="M 2906 1791 
Q 2906 2416 2648 2759 
Q 2391 3103 1925 3103 
Q 1463 3103 1205 2759 
Q 947 2416 947 1791 
Q 947 1169 1205 825 
Q 1463 481 1925 481 
Q 2391 481 2648 825 
Q 2906 1169 2906 1791 
z
M 3481 434 
Q 3481 -459 3084 -895 
Q 2688 -1331 1869 -1331 
Q 1566 -1331 1297 -1286 
Q 1028 -1241 775 -1147 
L 775 -588 
Q 1028 -725 1275 -790 
Q 1522 -856 1778 -856 
Q 2344 -856 2625 -561 
Q 2906 -266 2906 331 
L 2906 616 
Q 2728 306 2450 153 
Q 2172 0 1784 0 
Q 1141 0 747 490 
Q 353 981 353 1791 
Q 353 2603 747 3093 
Q 1141 3584 1784 3584 
Q 2172 3584 2450 3431 
Q 2728 3278 2906 2969 
L 2906 3500 
L 3481 3500 
L 3481 434 
z
" transform="scale(0.015625)"/>
       <path id="DejaVuSans-5b" d="M 3513 3500 
L 2247 1797 
L 3578 0 
L 2900 0 
L 1881 1375 
L 863 0 
L 184 0 
L 1544 1831 
L 300 3500 
L 978 3500 
L 1906 2253 
L 2834 3500 
L 3513 3500 
z
" transform="scale(0.015625)"/>
      </defs>
      <use xlink:href="#DejaVuSans-55"/>
      <use xlink:href="#DejaVuSans-48" transform="translate(38.90625 0)"/>
      <use xlink:href="#DejaVuSans-57" transform="translate(100.4375 0)"/>
      <use xlink:href="#DejaVuSans-55" transform="translate(139.640625 0)"/>
      <use xlink:href="#DejaVuSans-5c" transform="translate(180.75 0)"/>
      <use xlink:href="#DejaVuSans-3" transform="translate(239.9375 0)"/>
      <use xlink:href="#DejaVuSans-45" transform="translate(271.71875 0)"/>
      <use xlink:href="#DejaVuSans-58" transform="translate(335.203125 0)"/>
      <use xlink:href="#DejaVuSans-47" transform="translate(398.578125 0)"/>
      <use xlink:href="#DejaVuSans-4a" transform="translate(462.0625 0)"/>
      <use xlink:href="#DejaVuSans-48" transform="translate(525.546875 0)"/>
      <use xlink:href="#DejaVuSans-57" transform="translate(587.078125 0)"/>
      <use xlink:href="#DejaVuSans-3" transform="translate(626.28125 0)"/>
      <use xlink:href="#DejaVuSans-b" transform="translate(658.0625 0)"/>
      <use xlink:href="#DejaVuSans-56" transform="translate(697.078125 0)"/>
      <use xlink:href="#DejaVuSans-57" transform="translate(749.171875 0)"/>
      <use xlink:href="#DejaVuSans-48" transform="translate(788.375 0)"/>
      <use xlink:href="#DejaVuSans-53" transform="translate(849.90625 0)"/>
      <use xlink:href="#DejaVuSans-10" transform="translate(913.390625 0)"/>
      <use xlink:href="#DejaVuSans-48" transform="translate(949.46875 0)"/>
      <use xlink:href="#DejaVuSans-5b" transform="translate(1009.25 0)"/>
      <use xlink:href="#DejaVuSans-48" transform="translate(1065.359375 0)"/>
      <use xlink:href="#DejaVuSans-46" transform="translate(1126.890625 0)"/>
      <use xlink:href="#DejaVuSans-58" transform="translate(1181.875 0)"/>
      <use xlink:href="#DejaVuSans-57" transform="translate(1245.25 0)"/>
      <use xlink:href="#DejaVuSans-4c" transform="translate(1284.453125 0)"/>
      <use xlink:href="#DejaVuSans-52" transform="translate(1312.234375 0)"/>
      <use xlink:href="#DejaVuSans-51" transform="translate(1373.421875 0)"/>
      <use xlink:href="#DejaVuSans-56" transform="translate(1436.796875 0)"/>
      <use xlink:href="#DejaVuSans-c" transform="translate(1488.890625 0)"/>
     </g>
    </g>
   </g>
   <g id="matplotlib.axis_4">
    <g id="ytick_9">
     <g id="line2d_26">
      <g>
       <use xlink:href="#m2751c45d28" x="487.109225" y="317.75581" style="stroke: #000000; stroke-width: 0.8"/>
      </g>
     </g>
     <g id="text_30">
      <!-- 0.0 -->
      <g transform="translate(464.2061 321.554638) scale(0.1 -0.1)">
       <use xlink:href="#DejaVuSans-13"/>
       <use xlink:href="#DejaVuSans-11" transform="translate(63.625 0)"/>
       <use xlink:href="#DejaVuSans-13" transform="translate(95.40625 0)"/>
      </g>
     </g>
    </g>
    <g id="ytick_10">
     <g id="line2d_27">
      <g>
       <use xlink:href="#m2751c45d28" x="487.109225" y="270.070107" style="stroke: #000000; stroke-width: 0.8"/>
      </g>
     </g>
     <g id="text_31">
      <!-- 0.2 -->
      <g transform="translate(464.2061 273.868935) scale(0.1 -0.1)">
       <use xlink:href="#DejaVuSans-13"/>
       <use xlink:href="#DejaVuSans-11" transform="translate(63.625 0)"/>
       <use xlink:href="#DejaVuSans-15" transform="translate(95.40625 0)"/>
      </g>
     </g>
    </g>
    <g id="ytick_11">
     <g id="line2d_28">
      <g>
       <use xlink:href="#m2751c45d28" x="487.109225" y="222.384404" style="stroke: #000000; stroke-width: 0.8"/>
      </g>
     </g>
     <g id="text_32">
      <!-- 0.4 -->
      <g transform="translate(464.2061 226.183232) scale(0.1 -0.1)">
       <use xlink:href="#DejaVuSans-13"/>
       <use xlink:href="#DejaVuSans-11" transform="translate(63.625 0)"/>
       <use xlink:href="#DejaVuSans-17" transform="translate(95.40625 0)"/>
      </g>
     </g>
    </g>
    <g id="ytick_12">
     <g id="line2d_29">
      <g>
       <use xlink:href="#m2751c45d28" x="487.109225" y="174.698701" style="stroke: #000000; stroke-width: 0.8"/>
      </g>
     </g>
     <g id="text_33">
      <!-- 0.6 -->
      <g transform="translate(464.2061 178.497529) scale(0.1 -0.1)">
       <use xlink:href="#DejaVuSans-13"/>
       <use xlink:href="#DejaVuSans-11" transform="translate(63.625 0)"/>
       <use xlink:href="#DejaVuSans-19" transform="translate(95.40625 0)"/>
      </g>
     </g>
    </g>
    <g id="ytick_13">
     <g id="line2d_30">
      <g>
       <use xlink:href="#m2751c45d28" x="487.109225" y="127.012998" style="stroke: #000000; stroke-width: 0.8"/>
      </g>
     </g>
     <g id="text_34">
      <!-- 0.8 -->
      <g transform="translate(464.2061 130.811826) scale(0.1 -0.1)">
       <use xlink:href="#DejaVuSans-13"/>
       <use xlink:href="#DejaVuSans-11" transform="translate(63.625 0)"/>
       <use xlink:href="#DejaVuSans-1b" transform="translate(95.40625 0)"/>
      </g>
     </g>
    </g>
    <g id="ytick_14">
     <g id="line2d_31">
      <g>
       <use xlink:href="#m2751c45d28" x="487.109225" y="79.327294" style="stroke: #000000; stroke-width: 0.8"/>
      </g>
     </g>
     <g id="text_35">
      <!-- 1.0 -->
      <g transform="translate(464.2061 83.126123) scale(0.1 -0.1)">
       <use xlink:href="#DejaVuSans-14"/>
       <use xlink:href="#DejaVuSans-11" transform="translate(63.625 0)"/>
       <use xlink:href="#DejaVuSans-13" transform="translate(95.40625 0)"/>
      </g>
     </g>
    </g>
    <g id="text_36">
     <!-- recovery rate -->
     <g transform="translate(457.803756 232.168115) rotate(-90) scale(0.1 -0.1)">
      <use xlink:href="#DejaVuSans-55"/>
      <use xlink:href="#DejaVuSans-48" transform="translate(38.90625 0)"/>
      <use xlink:href="#DejaVuSans-46" transform="translate(100.4375 0)"/>
      <use xlink:href="#DejaVuSans-52" transform="translate(155.421875 0)"/>
      <use xlink:href="#DejaVuSans-59" transform="translate(216.609375 0)"/>
      <use xlink:href="#DejaVuSans-48" transform="translate(275.796875 0)"/>
      <use xlink:href="#DejaVuSans-55" transform="translate(337.328125 0)"/>
      <use xlink:href="#DejaVuSans-5c" transform="translate(378.4375 0)"/>
      <use xlink:href="#DejaVuSans-3" transform="translate(437.625 0)"/>
      <use xlink:href="#DejaVuSans-55" transform="translate(469.40625 0)"/>
      <use xlink:href="#DejaVuSans-44" transform="translate(510.515625 0)"/>
      <use xlink:href="#DejaVuSans-57" transform="translate(571.796875 0)"/>
      <use xlink:href="#DejaVuSans-48" transform="translate(611 0)"/>
     </g>
    </g>
   </g>
   <g id="line2d_32">
    <path d="M 505.239941 309.980967 
L 517.743883 308.68516 
L 530.247825 307.389353 
L 542.751767 307.389353 
L 555.255709 307.389353 
L 567.759651 307.389353 
L 580.263593 307.389353 
L 592.767535 307.389353 
L 605.271477 307.389353 
L 617.775419 307.389353 
L 630.279361 307.389353 
L 642.783303 307.389353 
L 655.287245 307.389353 
L 667.791187 307.389353 
L 680.295129 307.389353 
L 692.799071 307.389353 
L 705.303013 307.389353 
L 717.806955 307.389353 
L 730.310898 307.389353 
L 742.81484 307.389353 
L 755.318782 307.389353 
L 767.822724 307.389353 
L 780.326666 307.389353 
L 792.830608 307.389353 
L 805.33455 307.389353 
L 817.838492 307.389353 
L 830.342434 307.389353 
L 842.846376 307.389353 
L 855.350318 307.389353 
L 867.85426 307.389353 
" clip-path="url(#p0537f85daf)" style="fill: none; stroke: #c0392b; stroke-width: 2; stroke-linecap: square"/>
    <defs>
     <path id="m1a773ef94d" d="M 0 1.5 
C 0.397805 1.5 0.77937 1.341951 1.06066 1.06066 
C 1.341951 0.77937 1.5 0.397805 1.5 0 
C 1.5 -0.397805 1.341951 -0.77937 1.06066 -1.06066 
C 0.77937 -1.341951 0.397805 -1.5 0 -1.5 
C -0.397805 -1.5 -0.77937 -1.341951 -1.06066 -1.06066 
C -1.341951 -0.77937 -1.5 -0.397805 -1.5 0 
C -1.5 0.397805 -1.341951 0.77937 -1.06066 1.06066 
C -0.77937 1.341951 -0.397805 1.5 0 1.5 
z
" style="stroke: #c0392b"/>
    </defs>
    <g clip-path="url(#p0537f85daf)">
     <use xlink:href="#m1a773ef94d" x="505.239941" y="309.980967" style="fill: #c0392b; stroke: #c0392b"/>
     <use xlink:href="#m1a773ef94d" x="517.743883" y="308.68516" style="fill: #c0392b; stroke: #c0392b"/>
     <use xlink:href="#m1a773ef94d" x="530.247825" y="307.389353" style="fill: #c0392b; stroke: #c0392b"/>
     <use xlink:href="#m1a773ef94d" x="542.751767" y="307.389353" style="fill: #c0392b; stroke: #c0392b"/>
     <use xlink:href="#m1a773ef94d" x="555.255709" y="307.389353" style="fill: #c0392b; stroke: #c0392b"/>
     <use xlink:href="#m1a773ef94d" x="567.759651" y="307.389353" style="fill: #c0392b; stroke: #c0392b"/>
     <use xlink:href="#m1a773ef94d" x="580.263593" y="307.389353" style="fill: #c0392b; stroke: #c0392b"/>
     <use xlink:href="#m1a773ef94d" x="592.767535" y="307.389353" style="fill: #c0392b; stroke: #c0392b"/>
     <use xlink:href="#m1a773ef94d" x="605.271477" y="307.389353" style="fill: #c0392b; stroke: #c0392b"/>
     <use xlink:href="#m1a773ef94d" x="617.775419" y="307.389353" style="fill: #c0392b; stroke: #c0392b"/>
     <use xlink:href="#m1a773ef94d" x="630.279361" y="307.389353" style="fill: #c0392b; stroke: #c0392b"/>
     <use xlink:href="#m1a773ef94d" x="642.783303" y="307.389353" style="fill: #c0392b; stroke: #c0392b"/>
     <use xlink:href="#m1a773ef94d" x="655.287245" y="307.389353" style="fill: #c0392b; stroke: #c0392b"/>
     <use xlink:href="#m1a773ef94d" x="667.791187" y="307.389353" style="fill: #c0392b; stroke: #c0392b"/>
     <use xlink:href="#m1a773ef94d" x="680.295129" y="307.389353" style="fill: #c0392b; stroke: #c0392b"/>
     <use xlink:href="#m1a773ef94d" x="692.799071" y="307.389353" style="fill: #c0392b; stroke: #c0392b"/>
     <use xlink:href="#m1a773ef94d" x="705.303013" y="307.389353" style="fill: #c0392b; stroke: #c0392b"/>
     <use xlink:href="#m1a773ef94d" x="717.806955" y="307.389353" style="fill: #c0392b; stroke: #c0392b"/>
     <use xlink:href="#m1a773ef94d" x="730.310898" y="307.389353" style="fill: #c0392b; stroke: #c0392b"/>
     <use xlink:href="#m1a773ef94d" x="742.81484" y="307.389353" style="fill: #c0392b; stroke: #c0392b"/>
     <use xlink:href="#m1a773ef94d" x="755.318782" y="307.389353" style="fill: #c0392b; stroke: #c0392b"/>
     <use xlink:href="#m1a773ef94d" x="767.822724" y="307.389353" style="fill: #c0392b; stroke: #c0392b"/>
     <use xlink:href="#m1a773ef94d" x="780.326666" y="307.389353" style="fill: #c0392b; stroke: #c0392b"/>
     <use xlink:href="#m1a773ef94d" x="792.830608" y="307.389353" style="fill: #c0392b; stroke: #c0392b"/>
     <use xlink:href="#m1a773ef94d" x="805.33455" y="307.389353" style="fill: #c0392b; stroke: #c0392b"/>
     <use xlink:href="#m1a773ef94d" x="817.838492" y="307.389353" style="fill: #c0392b; stroke: #c0392b"/>
     <use xlink:href="#m1a773ef94d" x="830.342434" y="307.389353" style="fill: #c0392b; stroke: #c0392b"/>
     <use xlink:href="#m1a773ef94d" x="842.846376" y="307.389353" style="fill: #c0392b; stroke: #c0392b"/>
     <use xlink:href="#m1a773ef94d" x="855.350318" y="307.389353" style="fill: #c0392b; stroke: #c0392b"/>
     <use xlink:href="#m1a773ef94d" x="867.85426" y="307.389353" style="fill: #c0392b; stroke: #c0392b"/>
    </g>
   </g>
   <g id="line2d_33">
    <path d="M 505.239941 311.276774 
L 517.743883 312.572581 
L 530.247825 311.276774 
L 542.751767 302.206124 
L 555.255709 285.360631 
L 567.759651 277.585788 
L 580.263593 276.289981 
L 592.767535 272.40256 
L 605.271477 269.810946 
L 617.775419 260.740295 
L 630.279361 267.219331 
L 642.783303 255.557067 
L 655.287245 252.965453 
L 667.791187 254.26126 
L 680.295129 251.669645 
L 692.799071 246.486417 
L 705.303013 230.936731 
L 717.806955 245.19061 
L 730.310898 228.345117 
L 742.81484 233.528345 
L 755.318782 221.866081 
L 767.822724 219.274467 
L 780.326666 210.203817 
L 792.830608 208.908009 
L 805.33455 212.795431 
L 817.838492 202.428974 
L 830.342434 201.133167 
L 842.846376 216.682852 
L 855.350318 201.133167 
L 867.85426 205.020588 
" clip-path="url(#p0537f85daf)" style="fill: none; stroke: #2980b9; stroke-width: 2; stroke-linecap: square"/>
    <defs>
     <path id="m4465928390" d="M 0 1.5 
C 0.397805 1.5 0.77937 1.341951 1.06066 1.06066 
C 1.341951 0.77937 1.5 0.397805 1.5 0 
C 1.5 -0.397805 1.341951 -0.77937 1.06066 -1.06066 
C 0.77937 -1.341951 0.397805 -1.5 0 -1.5 
C -0.397805 -1.5 -0.77937 -1.341951 -1.06066 -1.06066 
C -1.341951 -0.77937 -1.5 -0.397805 -1.5 0 
C -1.5 0.397805 -1.341951 0.77937 -1.06066 1.06066 
C -0.77937 1.341951 -0.397805 1.5 0 1.5 
z
" style="stroke: #2980b9"/>
    </defs>
    <g clip-path="url(#p0537f85daf)">
     <use xlink:href="#m4465928390" x="505.239941" y="311.276774" style="fill: #2980b9; stroke: #2980b9"/>
     <use xlink:href="#m4465928390" x="517.743883" y="312.572581" style="fill: #2980b9; stroke: #2980b9"/>
     <use xlink:href="#m4465928390" x="530.247825" y="311.276774" style="fill: #2980b9; stroke: #2980b9"/>
     <use xlink:href="#m4465928390" x="542.751767" y="302.206124" style="fill: #2980b9; stroke: #2980b9"/>
     <use xlink:href="#m4465928390" x="555.255709" y="285.360631" style="fill: #2980b9; stroke: #2980b9"/>
     <use xlink:href="#m4465928390" x="567.759651" y="277.585788" style="fill: #2980b9; stroke: #2980b9"/>
     <use xlink:href="#m4465928390" x="580.263593" y="276.289981" style="fill: #2980b9; stroke: #2980b9"/>
     <use xlink:href="#m4465928390" x="592.767535" y="272.40256" style="fill: #2980b9; stroke: #2980b9"/>
     <use xlink:href="#m4465928390" x="605.271477" y="269.810946" style="fill: #2980b9; stroke: #2980b9"/>
     <use xlink:href="#m4465928390" x="617.775419" y="260.740295" style="fill: #2980b9; stroke: #2980b9"/>
     <use xlink:href="#m4465928390" x="630.279361" y="267.219331" style="fill: #2980b9; stroke: #2980b9"/>
     <use xlink:href="#m4465928390" x="642.783303" y="255.557067" style="fill: #2980b9; stroke: #2980b9"/>
     <use xlink:href="#m4465928390" x="655.287245" y="252.965453" style="fill: #2980b9; stroke: #2980b9"/>
     <use xlink:href="#m4465928390" x="667.791187" y="254.26126" style="fill: #2980b9; stroke: #2980b9"/>
     <use xlink:href="#m4465928390" x="680.295129" y="251.669645" style="fill: #2980b9; stroke: #2980b9"/>
     <use xlink:href="#m4465928390" x="692.799071" y="246.486417" style="fill: #2980b9; stroke: #2980b9"/>
     <use xlink:href="#m4465928390" x="705.303013" y="230.936731" style="fill: #2980b9; stroke: #2980b9"/>
     <use xlink:href="#m4465928390" x="717.806955" y="245.19061" style="fill: #2980b9; stroke: #2980b9"/>
     <use xlink:href="#m4465928390" x="730.310898" y="228.345117" style="fill: #2980b9; stroke: #2980b9"/>
     <use xlink:href="#m4465928390" x="742.81484" y="233.528345" style="fill: #2980b9; stroke: #2980b9"/>
     <use xlink:href="#m4465928390" x="755.318782" y="221.866081" style="fill: #2980b9; stroke: #2980b9"/>
     <use xlink:href="#m4465928390" x="767.822724" y="219.274467" style="fill: #2980b9; stroke: #2980b9"/>
     <use xlink:href="#m4465928390" x="780.326666" y="210.203817" style="fill: #2980b9; stroke: #2980b9"/>
     <use xlink:href="#m4465928390" x="792.830608" y="208.908009" style="fill: #2980b9; stroke: #2980b9"/>
     <use xlink:href="#m4465928390" x="805.33455" y="212.795431" style="fill: #2980b9; stroke: #2980b9"/>
     <use xlink:href="#m4465928390" x="817.838492" y="202.428974" style="fill: #2980b9; stroke: #2980b9"/>
     <use xlink:href="#m4465928390" x="830.342434" y="201.133167" style="fill: #2980b9; stroke: #2980b9"/>
     <use xlink:href="#m4465928390" x="842.846376" y="216.682852" style="fill: #2980b9; stroke: #2980b9"/>
     <use xlink:href="#m4465928390" x="855.350318" y="201.133167" style="fill: #2980b9; stroke: #2980b9"/>
     <use xlink:href="#m4465928390" x="867.85426" y="205.020588" style="fill: #2980b9; stroke: #2980b9"/>
    </g>
   </g>
   <g id="line2d_34">
    <path d="M 505.239941 313.868389 
L 517.743883 303.501931 
L 530.247825 293.135474 
L 542.751767 282.769017 
L 555.255709 265.923524 
L 567.759651 264.627717 
L 580.263593 254.26126 
L 592.767535 259.444488 
L 605.271477 256.852874 
L 617.775419 234.824152 
L 630.279361 229.640924 
L 642.783303 233.528345 
L 655.287245 227.04931 
L 667.791187 224.457695 
L 680.295129 220.570274 
L 692.799071 220.570274 
L 705.303013 208.908009 
L 717.806955 202.428974 
L 730.310898 211.499624 
L 742.81484 210.203817 
L 755.318782 205.020588 
L 767.822724 197.245745 
L 780.326666 202.428974 
L 792.830608 205.020588 
L 805.33455 193.358324 
L 817.838492 190.766709 
L 830.342434 193.358324 
L 842.846376 186.879288 
L 855.350318 186.879288 
L 867.85426 181.696059 
" clip-path="url(#p0537f85daf)" style="fill: none; stroke: #16a085; stroke-width: 2; stroke-linecap: square"/>
    <defs>
     <path id="m4a6879cfc6" d="M 0 1.5 
C 0.397805 1.5 0.77937 1.341951 1.06066 1.06066 
C 1.341951 0.77937 1.5 0.397805 1.5 0 
C 1.5 -0.397805 1.341951 -0.77937 1.06066 -1.06066 
C 0.77937 -1.341951 0.397805 -1.5 0 -1.5 
C -0.397805 -1.5 -0.77937 -1.341951 -1.06066 -1.06066 
C -1.341951 -0.77937 -1.5 -0.397805 -1.5 0 
C -1.5 0.397805 -1.341951 0.77937 -1.06066 1.06066 
C -0.77937 1.341951 -0.397805 1.5 0 1.5 
z
" style="stroke: #16a085"/>
    </defs>
    <g clip-path="url(#p0537f85daf)">
     <use xlink:href="#m4a6879cfc6" x="505.239941" y="313.868389" style="fill: #16a085; stroke: #16a085"/>
     <use xlink:href="#m4a6879cfc6" x="517.743883" y="303.501931" style="fill: #16a085; stroke: #16a085"/>
     <use xlink:href="#m4a6879cfc6" x="530.247825" y="293.135474" style="fill: #16a085; stroke: #16a085"/>
     <use xlink:href="#m4a6879cfc6" x="542.751767" y="282.769017" style="fill: #16a085; stroke: #16a085"/>
     <use xlink:href="#m4a6879cfc6" x="555.255709" y="265.923524" style="fill: #16a085; stroke: #16a085"/>
     <use xlink:href="#m4a6879cfc6" x="567.759651" y="264.627717" style="fill: #16a085; stroke: #16a085"/>
     <use xlink:href="#m4a6879cfc6" x="580.263593" y="254.26126" style="fill: #16a085; stroke: #16a085"/>
     <use xlink:href="#m4a6879cfc6" x="592.767535" y="259.444488" style="fill: #16a085; stroke: #16a085"/>
     <use xlink:href="#m4a6879cfc6" x="605.271477" y="256.852874" style="fill: #16a085; stroke: #16a085"/>
     <use xlink:href="#m4a6879cfc6" x="617.775419" y="234.824152" style="fill: #16a085; stroke: #16a085"/>
     <use xlink:href="#m4a6879cfc6" x="630.279361" y="229.640924" style="fill: #16a085; stroke: #16a085"/>
     <use xlink:href="#m4a6879cfc6" x="642.783303" y="233.528345" style="fill: #16a085; stroke: #16a085"/>
     <use xlink:href="#m4a6879cfc6" x="655.287245" y="227.04931" style="fill: #16a085; stroke: #16a085"/>
     <use xlink:href="#m4a6879cfc6" x="667.791187" y="224.457695" style="fill: #16a085; stroke: #16a085"/>
     <use xlink:href="#m4a6879cfc6" x="680.295129" y="220.570274" style="fill: #16a085; stroke: #16a085"/>
     <use xlink:href="#m4a6879cfc6" x="692.799071" y="220.570274" style="fill: #16a085; stroke: #16a085"/>
     <use xlink:href="#m4a6879cfc6" x="705.303013" y="208.908009" style="fill: #16a085; stroke: #16a085"/>
     <use xlink:href="#m4a6879cfc6" x="717.806955" y="202.428974" style="fill: #16a085; stroke: #16a085"/>
     <use xlink:href="#m4a6879cfc6" x="730.310898" y="211.499624" style="fill: #16a085; stroke: #16a085"/>
     <use xlink:href="#m4a6879cfc6" x="742.81484" y="210.203817" style="fill: #16a085; stroke: #16a085"/>
     <use xlink:href="#m4a6879cfc6" x="755.318782" y="205.020588" style="fill: #16a085; stroke: #16a085"/>
     <use xlink:href="#m4a6879cfc6" x="767.822724" y="197.245745" style="fill: #16a085; stroke: #16a085"/>
     <use xlink:href="#m4a6879cfc6" x="780.326666" y="202.428974" style="fill: #16a085; stroke: #16a085"/>
     <use xlink:href="#m4a6879cfc6" x="792.830608" y="205.020588" style="fill: #16a085; stroke: #16a085"/>
     <use xlink:href="#m4a6879cfc6" x="805.33455" y="193.358324" style="fill: #16a085; stroke: #16a085"/>
     <use xlink:href="#m4a6879cfc6" x="817.838492" y="190.766709" style="fill: #16a085; stroke: #16a085"/>
     <use xlink:href="#m4a6879cfc6" x="830.342434" y="193.358324" style="fill: #16a085; stroke: #16a085"/>
     <use xlink:href="#m4a6879cfc6" x="842.846376" y="186.879288" style="fill: #16a085; stroke: #16a085"/>
     <use xlink:href="#m4a6879cfc6" x="855.350318" y="186.879288" style="fill: #16a085; stroke: #16a085"/>
     <use xlink:href="#m4a6879cfc6" x="867.85426" y="181.696059" style="fill: #16a085; stroke: #16a085"/>
    </g>
   </g>
   <g id="line2d_35">
    <path d="M 505.239941 298.318703 
L 517.743883 277.585788 
L 530.247825 250.373838 
L 542.751767 242.598995 
L 555.255709 234.824152 
L 567.759651 217.97866 
L 580.263593 227.04931 
L 592.767535 207.612202 
L 605.271477 207.612202 
L 617.775419 205.020588 
L 630.279361 190.766709 
L 642.783303 189.470902 
L 655.287245 189.470902 
L 667.791187 189.470902 
L 680.295129 185.583481 
L 692.799071 182.991866 
L 705.303013 182.991866 
L 717.806955 176.512831 
L 730.310898 176.512831 
L 742.81484 168.737988 
L 755.318782 172.625409 
L 767.822724 172.625409 
L 780.326666 166.146374 
L 792.830608 159.667338 
L 805.33455 158.371531 
L 817.838492 158.371531 
L 830.342434 159.667338 
L 842.846376 159.667338 
L 855.350318 158.371531 
L 867.85426 155.779916 
" clip-path="url(#p0537f85daf)" style="fill: none; stroke: #8e44ad; stroke-width: 2; stroke-linecap: square"/>
    <defs>
     <path id="mb35214867b" d="M 0 1.5 
C 0.397805 1.5 0.77937 1.341951 1.06066 1.06066 
C 1.341951 0.77937 1.5 0.397805 1.5 0 
C 1.5 -0.397805 1.341951 -0.77937 1.06066 -1.06066 
C 0.77937 -1.341951 0.397805 -1.5 0 -1.5 
C -0.397805 -1.5 -0.77937 -1.341951 -1.06066 -1.06066 
C -1.341951 -0.77937 -1.5 -0.397805 -1.5 0 
C -1.5 0.397805 -1.341951 0.77937 -1.06066 1.06066 
C -0.77937 1.341951 -0.397805 1.5 0 1.5 
z
" style="stroke: #8e44ad"/>
    </defs>
    <g clip-path="url(#p0537f85daf)">
     <use xlink:href="#mb35214867b" x="505.239941" y="298.318703" style="fill: #8e44ad; stroke: #8e44ad"/>
     <use xlink:href="#mb35214867b" x="517.743883" y="277.585788" style="fill: #8e44ad; stroke: #8e44ad"/>
     <use xlink:href="#mb35214867b" x="530.247825" y="250.373838" style="fill: #8e44ad; stroke: #8e44ad"/>
     <use xlink:href="#mb35214867b" x="542.751767" y="242.598995" style="fill: #8e44ad; stroke: #8e44ad"/>
     <use xlink:href="#mb35214867b" x="555.255709" y="234.824152" style="fill: #8e44ad; stroke: #8e44ad"/>
     <use xlink:href="#mb35214867b" x="567.759651" y="217.97866" style="fill: #8e44ad; stroke: #8e44ad"/>
     <use xlink:href="#mb35214867b" x="580.263593" y="227.04931" style="fill: #8e44ad; stroke: #8e44ad"/>
     <use xlink:href="#mb35214867b" x="592.767535" y="207.612202" style="fill: #8e44ad; stroke: #8e44ad"/>
     <use xlink:href="#mb35214867b" x="605.271477" y="207.612202" style="fill: #8e44ad; stroke: #8e44ad"/>
     <use xlink:href="#mb35214867b" x="617.775419" y="205.020588" style="fill: #8e44ad; stroke: #8e44ad"/>
     <use xlink:href="#mb35214867b" x="630.279361" y="190.766709" style="fill: #8e44ad; stroke: #8e44ad"/>
     <use xlink:href="#mb35214867b" x="642.783303" y="189.470902" style="fill: #8e44ad; stroke: #8e44ad"/>
     <use xlink:href="#mb35214867b" x="655.287245" y="189.470902" style="fill: #8e44ad; stroke: #8e44ad"/>
     <use xlink:href="#mb35214867b" x="667.791187" y="189.470902" style="fill: #8e44ad; stroke: #8e44ad"/>
     <use xlink:href="#mb35214867b" x="680.295129" y="185.583481" style="fill: #8e44ad; stroke: #8e44ad"/>
     <use xlink:href="#mb35214867b" x="692.799071" y="182.991866" style="fill: #8e44ad; stroke: #8e44ad"/>
     <use xlink:href="#mb35214867b" x="705.303013" y="182.991866" style="fill: #8e44ad; stroke: #8e44ad"/>
     <use xlink:href="#mb35214867b" x="717.806955" y="176.512831" style="fill: #8e44ad; stroke: #8e44ad"/>
     <use xlink:href="#mb35214867b" x="730.310898" y="176.512831" style="fill: #8e44ad; stroke: #8e44ad"/>
     <use xlink:href="#mb35214867b" x="742.81484" y="168.737988" style="fill: #8e44ad; stroke: #8e44ad"/>
     <use xlink:href="#mb35214867b" x="755.318782" y="172.625409" style="fill: #8e44ad; stroke: #8e44ad"/>
     <use xlink:href="#mb35214867b" x="767.822724" y="172.625409" style="fill: #8e44ad; stroke: #8e44ad"/>
     <use xlink:href="#mb35214867b" x="780.326666" y="166.146374" style="fill: #8e44ad; stroke: #8e44ad"/>
     <use xlink:href="#mb35214867b" x="792.830608" y="159.667338" style="fill: #8e44ad; stroke: #8e44ad"/>
     <use xlink:href="#mb35214867b" x="805.33455" y="158.371531" style="fill: #8e44ad; stroke: #8e44ad"/>
     <use xlink:href="#mb35214867b" x="817.838492" y="158.371531" style="fill: #8e44ad; stroke: #8e44ad"/>
     <use xlink:href="#mb35214867b" x="830.342434" y="159.667338" style="fill: #8e44ad; stroke: #8e44ad"/>
     <use xlink:href="#mb35214867b" x="842.846376" y="159.667338" style="fill: #8e44ad; stroke: #8e44ad"/>
     <use xlink:href="#mb35214867b" x="855.350318" y="158.371531" style="fill: #8e44ad; stroke: #8e44ad"/>
     <use xlink:href="#mb35214867b" x="867.85426" y="155.779916" style="fill: #8e44ad; stroke: #8e44ad"/>
    </g>
   </g>
   <g id="patch_22">
    <path d="M 487.109225 317.75581 
L 487.109225 79.327294 
" style="fill: none; stroke: #000000; stroke-width: 0.8; stroke-linejoin: miter; stroke-linecap: square"/>
   </g>
   <g id="patch_23">
    <path d="M 487.109225 317.75581 
L 885.984976 317.75581 
" style="fill: none; stroke: #000000; stroke-width: 0.8; stroke-linejoin: miter; stroke-linecap: square"/>
   </g>
   <g id="text_37">
    <!-- B. Recovery over the real distribution -->
    <g transform="translate(574.3771 58.924013) scale(0.12 -0.12)">
     <defs>
      <path id="DejaVuSans-25" d="M 1259 2228 
L 1259 519 
L 2272 519 
Q 2781 519 3026 730 
Q 3272 941 3272 1375 
Q 3272 1813 3026 2020 
Q 2781 2228 2272 2228 
L 1259 2228 
z
M 1259 4147 
L 1259 2741 
L 2194 2741 
Q 2656 2741 2882 2914 
Q 3109 3088 3109 3444 
Q 3109 3797 2882 3972 
Q 2656 4147 2194 4147 
L 1259 4147 
z
M 628 4666 
L 2241 4666 
Q 2963 4666 3353 4366 
Q 3744 4066 3744 3513 
Q 3744 3084 3544 2831 
Q 3344 2578 2956 2516 
Q 3422 2416 3680 2098 
Q 3938 1781 3938 1306 
Q 3938 681 3513 340 
Q 3088 0 2303 0 
L 628 0 
L 628 4666 
z
" transform="scale(0.015625)"/>
     </defs>
     <use xlink:href="#DejaVuSans-25"/>
     <use xlink:href="#DejaVuSans-11" transform="translate(68.609375 0)"/>
     <use xlink:href="#DejaVuSans-3" transform="translate(100.390625 0)"/>
     <use xlink:href="#DejaVuSans-35" transform="translate(132.171875 0)"/>
     <use xlink:href="#DejaVuSans-48" transform="translate(197.171875 0)"/>
     <use xlink:href="#DejaVuSans-46" transform="translate(258.703125 0)"/>
     <use xlink:href="#DejaVuSans-52" transform="translate(313.6875 0)"/>
     <use xlink:href="#DejaVuSans-59" transform="translate(374.875 0)"/>
     <use xlink:href="#DejaVuSans-48" transform="translate(434.0625 0)"/>
     <use xlink:href="#DejaVuSans-55" transform="translate(495.59375 0)"/>
     <use xlink:href="#DejaVuSans-5c" transform="translate(536.703125 0)"/>
     <use xlink:href="#DejaVuSans-3" transform="translate(595.890625 0)"/>
     <use xlink:href="#DejaVuSans-52" transform="translate(627.671875 0)"/>
     <use xlink:href="#DejaVuSans-59" transform="translate(688.859375 0)"/>
     <use xlink:href="#DejaVuSans-48" transform="translate(748.046875 0)"/>
     <use xlink:href="#DejaVuSans-55" transform="translate(809.578125 0)"/>
     <use xlink:href="#DejaVuSans-3" transform="translate(850.6875 0)"/>
     <use xlink:href="#DejaVuSans-57" transform="translate(882.46875 0)"/>
     <use xlink:href="#DejaVuSans-4b" transform="translate(921.671875 0)"/>
     <use xlink:href="#DejaVuSans-48" transform="translate(985.046875 0)"/>
     <use xlink:href="#DejaVuSans-3" transform="translate(1046.578125 0)"/>
     <use xlink:href="#DejaVuSans-55" transform="translate(1078.359375 0)"/>
     <use xlink:href="#DejaVuSans-48" transform="translate(1117.265625 0)"/>
     <use xlink:href="#DejaVuSans-44" transform="translate(1178.796875 0)"/>
     <use xlink:href="#DejaVuSans-4f" transform="translate(1240.078125 0)"/>
     <use xlink:href="#DejaVuSans-3" transform="translate(1267.859375 0)"/>
     <use xlink:href="#DejaVuSans-47" transform="translate(1299.640625 0)"/>
     <use xlink:href="#DejaVuSans-4c" transform="translate(1363.125 0)"/>
     <use xlink:href="#DejaVuSans-56" transform="translate(1390.90625 0)"/>
     <use xlink:href="#DejaVuSans-57" transform="translate(1443 0)"/>
     <use xlink:href="#DejaVuSans-55" transform="translate(1482.203125 0)"/>
     <use xlink:href="#DejaVuSans-4c" transform="translate(1523.3125 0)"/>
     <use xlink:href="#DejaVuSans-45" transform="translate(1551.09375 0)"/>
     <use xlink:href="#DejaVuSans-58" transform="translate(1614.578125 0)"/>
     <use xlink:href="#DejaVuSans-57" transform="translate(1677.953125 0)"/>
     <use xlink:href="#DejaVuSans-4c" transform="translate(1717.15625 0)"/>
     <use xlink:href="#DejaVuSans-52" transform="translate(1744.9375 0)"/>
     <use xlink:href="#DejaVuSans-51" transform="translate(1806.125 0)"/>
    </g>
    <!-- vs compute budget -->
    <g transform="translate(628.312413 73.327294) scale(0.12 -0.12)">
     <use xlink:href="#DejaVuSans-59"/>
     <use xlink:href="#DejaVuSans-56" transform="translate(59.1875 0)"/>
     <use xlink:href="#DejaVuSans-3" transform="translate(111.28125 0)"/>
     <use xlink:href="#DejaVuSans-46" transform="translate(143.0625 0)"/>
     <use xlink:href="#DejaVuSans-52" transform="translate(198.046875 0)"/>
     <use xlink:href="#DejaVuSans-50" transform="translate(259.234375 0)"/>
     <use xlink:href="#DejaVuSans-53" transform="translate(356.640625 0)"/>
     <use xlink:href="#DejaVuSans-58" transform="translate(420.125 0)"/>
     <use xlink:href="#DejaVuSans-57" transform="translate(483.5 0)"/>
     <use xlink:href="#DejaVuSans-48" transform="translate(522.703125 0)"/>
     <use xlink:href="#DejaVuSans-3" transform="translate(584.234375 0)"/>
     <use xlink:href="#DejaVuSans-45" transform="translate(616.015625 0)"/>
     <use xlink:href="#DejaVuSans-58" transform="translate(679.5 0)"/>
     <use xlink:href="#DejaVuSans-47" transform="translate(742.875 0)"/>
     <use xlink:href="#DejaVuSans-4a" transform="translate(806.359375 0)"/>
     <use xlink:href="#DejaVuSans-48" transform="translate(869.84375 0)"/>
     <use xlink:href="#DejaVuSans-57" transform="translate(931.375 0)"/>
    </g>
   </g>
   <g id="legend_1">
    <g id="line2d_36">
     <path d="M 494.309225 89.806044 
L 502.309225 89.806044 
L 510.309225 89.806044 
" style="fill: none; stroke: #c0392b; stroke-width: 2; stroke-linecap: square"/>
     <g>
      <use xlink:href="#m1a773ef94d" x="502.309225" y="89.806044" style="fill: #c0392b; stroke: #c0392b"/>
     </g>
    </g>
    <g id="text_38">
     <!-- retry-at-crash -->
     <g transform="translate(516.709225 92.606044) scale(0.08 -0.08)">
      <use xlink:href="#DejaVuSans-55"/>
      <use xlink:href="#DejaVuSans-48" transform="translate(38.90625 0)"/>
      <use xlink:href="#DejaVuSans-57" transform="translate(100.4375 0)"/>
      <use xlink:href="#DejaVuSans-55" transform="translate(139.640625 0)"/>
      <use xlink:href="#DejaVuSans-5c" transform="translate(180.75 0)"/>
      <use xlink:href="#DejaVuSans-10" transform="translate(238.1875 0)"/>
      <use xlink:href="#DejaVuSans-44" transform="translate(274.265625 0)"/>
      <use xlink:href="#DejaVuSans-57" transform="translate(335.546875 0)"/>
      <use xlink:href="#DejaVuSans-10" transform="translate(374.75 0)"/>
      <use xlink:href="#DejaVuSans-46" transform="translate(410.828125 0)"/>
      <use xlink:href="#DejaVuSans-55" transform="translate(465.8125 0)"/>
      <use xlink:href="#DejaVuSans-44" transform="translate(506.921875 0)"/>
      <use xlink:href="#DejaVuSans-56" transform="translate(568.203125 0)"/>
      <use xlink:href="#DejaVuSans-4b" transform="translate(620.296875 0)"/>
     </g>
    </g>
    <g id="line2d_37">
     <path d="M 494.309225 101.806669 
L 502.309225 101.806669 
L 510.309225 101.806669 
" style="fill: none; stroke: #2980b9; stroke-width: 2; stroke-linecap: square"/>
     <g>
      <use xlink:href="#m4465928390" x="502.309225" y="101.806669" style="fill: #2980b9; stroke: #2980b9"/>
     </g>
    </g>
    <g id="text_39">
     <!-- blind re-entry -->
     <g transform="translate(516.709225 104.606669) scale(0.08 -0.08)">
      <use xlink:href="#DejaVuSans-45"/>
      <use xlink:href="#DejaVuSans-4f" transform="translate(63.484375 0)"/>
      <use xlink:href="#DejaVuSans-4c" transform="translate(91.265625 0)"/>
      <use xlink:href="#DejaVuSans-51" transform="translate(119.046875 0)"/>
      <use xlink:href="#DejaVuSans-47" transform="translate(182.421875 0)"/>
      <use xlink:href="#DejaVuSans-3" transform="translate(245.90625 0)"/>
      <use xlink:href="#DejaVuSans-55" transform="translate(277.6875 0)"/>
      <use xlink:href="#DejaVuSans-48" transform="translate(316.59375 0)"/>
      <use xlink:href="#DejaVuSans-10" transform="translate(378.125 0)"/>
      <use xlink:href="#DejaVuSans-48" transform="translate(414.203125 0)"/>
      <use xlink:href="#DejaVuSans-51" transform="translate(475.734375 0)"/>
      <use xlink:href="#DejaVuSans-57" transform="translate(539.109375 0)"/>
      <use xlink:href="#DejaVuSans-55" transform="translate(578.3125 0)"/>
      <use xlink:href="#DejaVuSans-5c" transform="translate(619.421875 0)"/>
     </g>
    </g>
    <g id="line2d_38">
     <path d="M 494.309225 113.807294 
L 502.309225 113.807294 
L 510.309225 113.807294 
" style="fill: none; stroke: #16a085; stroke-width: 2; stroke-linecap: square"/>
     <g>
      <use xlink:href="#m4a6879cfc6" x="502.309225" y="113.807294" style="fill: #16a085; stroke: #16a085"/>
     </g>
    </g>
    <g id="text_40">
     <!-- respawn (acc 0.43) -->
     <g transform="translate(516.709225 116.607294) scale(0.08 -0.08)">
      <use xlink:href="#DejaVuSans-55"/>
      <use xlink:href="#DejaVuSans-48" transform="translate(38.90625 0)"/>
      <use xlink:href="#DejaVuSans-56" transform="translate(100.4375 0)"/>
      <use xlink:href="#DejaVuSans-53" transform="translate(152.53125 0)"/>
      <use xlink:href="#DejaVuSans-44" transform="translate(216.015625 0)"/>
      <use xlink:href="#DejaVuSans-5a" transform="translate(277.296875 0)"/>
      <use xlink:href="#DejaVuSans-51" transform="translate(359.078125 0)"/>
      <use xlink:href="#DejaVuSans-3" transform="translate(422.453125 0)"/>
      <use xlink:href="#DejaVuSans-b" transform="translate(454.234375 0)"/>
      <use xlink:href="#DejaVuSans-44" transform="translate(493.25 0)"/>
      <use xlink:href="#DejaVuSans-46" transform="translate(554.53125 0)"/>
      <use xlink:href="#DejaVuSans-46" transform="translate(609.515625 0)"/>
      <use xlink:href="#DejaVuSans-3" transform="translate(664.5 0)"/>
      <use xlink:href="#DejaVuSans-13" transform="translate(696.28125 0)"/>
      <use xlink:href="#DejaVuSans-11" transform="translate(759.90625 0)"/>
      <use xlink:href="#DejaVuSans-17" transform="translate(791.6875 0)"/>
      <use xlink:href="#DejaVuSans-16" transform="translate(855.3125 0)"/>
      <use xlink:href="#DejaVuSans-c" transform="translate(918.9375 0)"/>
     </g>
    </g>
    <g id="line2d_39">
     <path d="M 494.309225 125.807919 
L 502.309225 125.807919 
L 510.309225 125.807919 
" style="fill: none; stroke: #8e44ad; stroke-width: 2; stroke-linecap: square"/>
     <g>
      <use xlink:href="#mb35214867b" x="502.309225" y="125.807919" style="fill: #8e44ad; stroke: #8e44ad"/>
     </g>
    </g>
    <g id="text_41">
     <!-- oracle -->
     <g transform="translate(516.709225 128.607919) scale(0.08 -0.08)">
      <use xlink:href="#DejaVuSans-52"/>
      <use xlink:href="#DejaVuSans-55" transform="translate(61.1875 0)"/>
      <use xlink:href="#DejaVuSans-44" transform="translate(102.296875 0)"/>
      <use xlink:href="#DejaVuSans-46" transform="translate(163.578125 0)"/>
      <use xlink:href="#DejaVuSans-4f" transform="translate(218.5625 0)"/>
      <use xlink:href="#DejaVuSans-48" transform="translate(246.34375 0)"/>
     </g>
    </g>
   </g>
  </g>
  <g id="text_42">
   <!-- respawn on Who&amp;When: 95.7% of real failures have an upstream cause that retrying the failing step cannot fix -->
   <g transform="translate(112.465913 16.318125) scale(0.12 -0.12)">
    <defs>
     <path id="DejaVuSans-1c" d="M 703 97 
L 703 672 
Q 941 559 1184 500 
Q 1428 441 1663 441 
Q 2288 441 2617 861 
Q 2947 1281 2994 2138 
Q 2813 1869 2534 1725 
Q 2256 1581 1919 1581 
Q 1219 1581 811 2004 
Q 403 2428 403 3163 
Q 403 3881 828 4315 
Q 1253 4750 1959 4750 
Q 2769 4750 3195 4129 
Q 3622 3509 3622 2328 
Q 3622 1225 3098 567 
Q 2575 -91 1691 -91 
Q 1453 -91 1209 -44 
Q 966 3 703 97 
z
M 1959 2075 
Q 2384 2075 2632 2365 
Q 2881 2656 2881 3163 
Q 2881 3666 2632 3958 
Q 2384 4250 1959 4250 
Q 1534 4250 1286 3958 
Q 1038 3666 1038 3163 
Q 1038 2656 1286 2365 
Q 1534 2075 1959 2075 
z
" transform="scale(0.015625)"/>
     <path id="DejaVuSans-1a" d="M 525 4666 
L 3525 4666 
L 3525 4397 
L 1831 0 
L 1172 0 
L 2766 4134 
L 525 4134 
L 525 4666 
z
" transform="scale(0.015625)"/>
    </defs>
    <use xlink:href="#DejaVuSans-55"/>
    <use xlink:href="#DejaVuSans-48" transform="translate(38.90625 0)"/>
    <use xlink:href="#DejaVuSans-56" transform="translate(100.4375 0)"/>
    <use xlink:href="#DejaVuSans-53" transform="translate(152.53125 0)"/>
    <use xlink:href="#DejaVuSans-44" transform="translate(216.015625 0)"/>
    <use xlink:href="#DejaVuSans-5a" transform="translate(277.296875 0)"/>
    <use xlink:href="#DejaVuSans-51" transform="translate(359.078125 0)"/>
    <use xlink:href="#DejaVuSans-3" transform="translate(422.453125 0)"/>
    <use xlink:href="#DejaVuSans-52" transform="translate(454.234375 0)"/>
    <use xlink:href="#DejaVuSans-51" transform="translate(515.421875 0)"/>
    <use xlink:href="#DejaVuSans-3" transform="translate(578.796875 0)"/>
    <use xlink:href="#DejaVuSans-3a" transform="translate(610.578125 0)"/>
    <use xlink:href="#DejaVuSans-4b" transform="translate(709.453125 0)"/>
    <use xlink:href="#DejaVuSans-52" transform="translate(772.828125 0)"/>
    <use xlink:href="#DejaVuSans-9" transform="translate(834.015625 0)"/>
    <use xlink:href="#DejaVuSans-3a" transform="translate(912 0)"/>
    <use xlink:href="#DejaVuSans-4b" transform="translate(1010.875 0)"/>
    <use xlink:href="#DejaVuSans-48" transform="translate(1074.25 0)"/>
    <use xlink:href="#DejaVuSans-51" transform="translate(1135.78125 0)"/>
    <use xlink:href="#DejaVuSans-1d" transform="translate(1199.15625 0)"/>
    <use xlink:href="#DejaVuSans-3" transform="translate(1232.84375 0)"/>
    <use xlink:href="#DejaVuSans-1c" transform="translate(1264.625 0)"/>
    <use xlink:href="#DejaVuSans-18" transform="translate(1328.25 0)"/>
    <use xlink:href="#DejaVuSans-11" transform="translate(1391.875 0)"/>
    <use xlink:href="#DejaVuSans-1a" transform="translate(1423.65625 0)"/>
    <use xlink:href="#DejaVuSans-8" transform="translate(1487.28125 0)"/>
    <use xlink:href="#DejaVuSans-3" transform="translate(1582.296875 0)"/>
    <use xlink:href="#DejaVuSans-52" transform="translate(1614.078125 0)"/>
    <use xlink:href="#DejaVuSans-49" transform="translate(1675.265625 0)"/>
    <use xlink:href="#DejaVuSans-3" transform="translate(1710.46875 0)"/>
    <use xlink:href="#DejaVuSans-55" transform="translate(1742.25 0)"/>
    <use xlink:href="#DejaVuSans-48" transform="translate(1781.15625 0)"/>
    <use xlink:href="#DejaVuSans-44" transform="translate(1842.6875 0)"/>
    <use xlink:href="#DejaVuSans-4f" transform="translate(1903.96875 0)"/>
    <use xlink:href="#DejaVuSans-3" transform="translate(1931.75 0)"/>
    <use xlink:href="#DejaVuSans-49" transform="translate(1963.53125 0)"/>
    <use xlink:href="#DejaVuSans-44" transform="translate(1998.734375 0)"/>
    <use xlink:href="#DejaVuSans-4c" transform="translate(2060.015625 0)"/>
    <use xlink:href="#DejaVuSans-4f" transform="translate(2087.796875 0)"/>
    <use xlink:href="#DejaVuSans-58" transform="translate(2115.578125 0)"/>
    <use xlink:href="#DejaVuSans-55" transform="translate(2178.953125 0)"/>
    <use xlink:href="#DejaVuSans-48" transform="translate(2217.859375 0)"/>
    <use xlink:href="#DejaVuSans-56" transform="translate(2279.390625 0)"/>
    <use xlink:href="#DejaVuSans-3" transform="translate(2331.484375 0)"/>
    <use xlink:href="#DejaVuSans-4b" transform="translate(2363.265625 0)"/>
    <use xlink:href="#DejaVuSans-44" transform="translate(2426.640625 0)"/>
    <use xlink:href="#DejaVuSans-59" transform="translate(2487.921875 0)"/>
    <use xlink:href="#DejaVuSans-48" transform="translate(2547.109375 0)"/>
    <use xlink:href="#DejaVuSans-3" transform="translate(2608.640625 0)"/>
    <use xlink:href="#DejaVuSans-44" transform="translate(2640.421875 0)"/>
    <use xlink:href="#DejaVuSans-51" transform="translate(2701.703125 0)"/>
    <use xlink:href="#DejaVuSans-3" transform="translate(2765.078125 0)"/>
    <use xlink:href="#DejaVuSans-58" transform="translate(2796.859375 0)"/>
    <use xlink:href="#DejaVuSans-53" transform="translate(2860.234375 0)"/>
    <use xlink:href="#DejaVuSans-56" transform="translate(2923.71875 0)"/>
    <use xlink:href="#DejaVuSans-57" transform="translate(2975.8125 0)"/>
    <use xlink:href="#DejaVuSans-55" transform="translate(3015.015625 0)"/>
    <use xlink:href="#DejaVuSans-48" transform="translate(3053.921875 0)"/>
    <use xlink:href="#DejaVuSans-44" transform="translate(3115.453125 0)"/>
    <use xlink:href="#DejaVuSans-50" transform="translate(3176.734375 0)"/>
    <use xlink:href="#DejaVuSans-3" transform="translate(3274.140625 0)"/>
    <use xlink:href="#DejaVuSans-46" transform="translate(3305.921875 0)"/>
    <use xlink:href="#DejaVuSans-44" transform="translate(3360.90625 0)"/>
    <use xlink:href="#DejaVuSans-58" transform="translate(3422.1875 0)"/>
    <use xlink:href="#DejaVuSans-56" transform="translate(3485.5625 0)"/>
    <use xlink:href="#DejaVuSans-48" transform="translate(3537.65625 0)"/>
    <use xlink:href="#DejaVuSans-3" transform="translate(3599.1875 0)"/>
    <use xlink:href="#DejaVuSans-57" transform="translate(3630.96875 0)"/>
    <use xlink:href="#DejaVuSans-4b" transform="translate(3670.171875 0)"/>
    <use xlink:href="#DejaVuSans-44" transform="translate(3733.546875 0)"/>
    <use xlink:href="#DejaVuSans-57" transform="translate(3794.828125 0)"/>
    <use xlink:href="#DejaVuSans-3" transform="translate(3834.03125 0)"/>
    <use xlink:href="#DejaVuSans-55" transform="translate(3865.8125 0)"/>
    <use xlink:href="#DejaVuSans-48" transform="translate(3904.71875 0)"/>
    <use xlink:href="#DejaVuSans-57" transform="translate(3966.25 0)"/>
    <use xlink:href="#DejaVuSans-55" transform="translate(4005.453125 0)"/>
    <use xlink:href="#DejaVuSans-5c" transform="translate(4046.5625 0)"/>
    <use xlink:href="#DejaVuSans-4c" transform="translate(4105.75 0)"/>
    <use xlink:href="#DejaVuSans-51" transform="translate(4133.53125 0)"/>
    <use xlink:href="#DejaVuSans-4a" transform="translate(4196.90625 0)"/>
    <use xlink:href="#DejaVuSans-3" transform="translate(4260.390625 0)"/>
    <use xlink:href="#DejaVuSans-57" transform="translate(4292.171875 0)"/>
    <use xlink:href="#DejaVuSans-4b" transform="translate(4331.375 0)"/>
    <use xlink:href="#DejaVuSans-48" transform="translate(4394.75 0)"/>
    <use xlink:href="#DejaVuSans-3" transform="translate(4456.28125 0)"/>
    <use xlink:href="#DejaVuSans-49" transform="translate(4488.0625 0)"/>
    <use xlink:href="#DejaVuSans-44" transform="translate(4523.265625 0)"/>
    <use xlink:href="#DejaVuSans-4c" transform="translate(4584.546875 0)"/>
    <use xlink:href="#DejaVuSans-4f" transform="translate(4612.328125 0)"/>
    <use xlink:href="#DejaVuSans-4c" transform="translate(4640.109375 0)"/>
    <use xlink:href="#DejaVuSans-51" transform="translate(4667.890625 0)"/>
    <use xlink:href="#DejaVuSans-4a" transform="translate(4731.265625 0)"/>
    <use xlink:href="#DejaVuSans-3" transform="translate(4794.75 0)"/>
    <use xlink:href="#DejaVuSans-56" transform="translate(4826.53125 0)"/>
    <use xlink:href="#DejaVuSans-57" transform="translate(4878.625 0)"/>
    <use xlink:href="#DejaVuSans-48" transform="translate(4917.828125 0)"/>
    <use xlink:href="#DejaVuSans-53" transform="translate(4979.359375 0)"/>
    <use xlink:href="#DejaVuSans-3" transform="translate(5042.84375 0)"/>
    <use xlink:href="#DejaVuSans-46" transform="translate(5074.625 0)"/>
    <use xlink:href="#DejaVuSans-44" transform="translate(5129.609375 0)"/>
    <use xlink:href="#DejaVuSans-51" transform="translate(5190.890625 0)"/>
    <use xlink:href="#DejaVuSans-51" transform="translate(5254.265625 0)"/>
    <use xlink:href="#DejaVuSans-52" transform="translate(5317.640625 0)"/>
    <use xlink:href="#DejaVuSans-57" transform="translate(5378.828125 0)"/>
    <use xlink:href="#DejaVuSans-3" transform="translate(5418.03125 0)"/>
    <use xlink:href="#DejaVuSans-13af" transform="translate(5449.8125 0)"/>
    <use xlink:href="#DejaVuSans-5b" transform="translate(5512.796875 0)"/>
   </g>
  </g>
 </g>
 <defs>
  <clipPath id="pef8d17f8f9">
   <rect x="40.925781" y="79.327294" width="398.875751" height="238.428516"/>
  </clipPath>
  <clipPath id="p0537f85daf">
   <rect x="487.109225" y="79.327294" width="398.875751" height="238.428516"/>
  </clipPath>
 </defs>
</svg>
